<?xml version="1.0" standalone="no"?>
<!DOCTYPE svg PUBLIC "-//W3C//DTD SVG 1.1//EN" "http://www.w3.org/Graphics/SVG/1.1/DTD/svg11.dtd" >
<svg xmlns="http://www.w3.org/2000/svg">
<metadata>Generated by IcoMoon</metadata>
<defs>
<font id="icomoon" horiz-adv-x="1024">
<font-face units-per-em="1024" ascent="960" descent="-64" />
<missing-glyph horiz-adv-x="1024" />
<glyph unicode="&#x20;" horiz-adv-x="512" d="" />
<glyph unicode="&#xe7ff;" glyph-name="gift" d="M947.2 716.8h-153.67c16.107 21.408 25.67 48.006 25.67 76.8 0 70.579-57.421 128-128 128-71.181 0-130.869-56.381-160.112-89.987-17.707-20.35-32.954-42.136-44.686-63.208-11.733 21.070-26.981 42.858-44.688 63.208-29.245 33.606-88.931 89.987-160.114 89.987-70.579 0-128-57.421-128-128 0-28.794 9.563-55.392 25.669-76.8h-153.669c-14.138 0-25.6-11.462-25.6-25.6v-153.6c0-14.138 11.462-25.6 25.6-25.6h25.6v-486.4c0-42.349 34.453-76.8 76.8-76.8h716.8c42.349 0 76.8 34.451 76.8 76.8v486.4h25.6c14.139 0 25.6 11.462 25.6 25.6v153.6c0 14.138-11.461 25.6-25.6 25.6zM569.712 798.003c40.035 46.010 84.317 72.397 121.488 72.397 42.349 0 76.8-34.453 76.8-76.8s-34.451-76.8-76.8-76.8h-172.946c8.854 22.621 26.758 52.818 51.458 81.203zM563.2 0h-153.6v665.6h153.6v-665.6zM204.8 793.6c0 42.347 34.453 76.8 76.8 76.8 37.173 0 81.453-26.387 121.488-72.397 24.699-28.386 42.603-58.582 51.458-81.203h-172.946c-42.347 0-76.8 34.453-76.8 76.8zM51.2 665.6h307.2v-102.4h-307.2v102.4zM102.4 25.6v486.4h256v-512h-230.4c-14.115 0-25.6 11.485-25.6 25.6zM870.4 25.6c0-14.115-11.485-25.6-25.6-25.6h-230.4v512h256v-486.4zM921.6 563.2h-307.2v102.4h307.2v-102.4z" />
<glyph unicode="&#xe900;" glyph-name="AC" d="M819.2 304.64h-614.4c-76.8 0-133.12 61.44-133.12 133.12v174.080c0 76.8 61.44 133.12 133.12 133.12h614.4c76.8 0 133.12-61.44 133.12-133.12v-174.080c5.12-71.68-56.32-133.12-133.12-133.12zM204.8 704c-51.2 0-92.16-40.96-92.16-92.16v-174.080c0-51.2 40.96-92.16 92.16-92.16h614.4c51.2 0 92.16 40.96 92.16 92.16v174.080c0 51.2-40.96 92.16-92.16 92.16h-614.4zM102.4 494.080h819.2v-46.080h-819.2v46.080zM839.68 381.44h-680.96c-10.24 0-20.48 10.24-20.48 20.48s10.24 20.48 20.48 20.48h680.96c10.24 0 20.48-10.24 20.48-20.48s-10.24-20.48-20.48-20.48zM578.56 550.4h-163.84c-10.24 0-20.48 10.24-20.48 20.48s10.24 20.48 20.48 20.48h163.84c10.24 0 20.48-10.24 20.48-20.48s-10.24-20.48-20.48-20.48zM189.44 145.92c-10.24 0-15.36 5.12-20.48 15.36s0 25.6 15.36 30.72c40.96 15.36 30.72 61.44 25.6 66.56-5.12 10.24 5.12 25.6 15.36 25.6 10.24 5.12 25.6-5.12 25.6-15.36 10.24-30.72 10.24-92.16-56.32-117.76 0-5.12-5.12-5.12-5.12-5.12zM322.56 145.92c-10.24 0-15.36 5.12-20.48 15.36s0 25.6 15.36 30.72c40.96 15.36 30.72 61.44 25.6 66.56-5.12 10.24 5.12 25.6 15.36 25.6 10.24 5.12 25.6-5.12 25.6-15.36 10.24-30.72 10.24-92.16-56.32-117.76 0-5.12-5.12-5.12-5.12-5.12zM808.96 145.92c0 0-5.12 0-10.24 0-66.56 25.6-66.56 87.040-56.32 117.76 5.12 10.24 15.36 20.48 25.6 15.36s20.48-15.36 15.36-25.6c0-10.24-10.24-51.2 25.6-66.56 10.24-5.12 15.36-15.36 15.36-30.72 0-5.12-5.12-10.24-15.36-10.24zM675.84 145.92c0 0-5.12 0-10.24 0-66.56 25.6-66.56 87.040-56.32 117.76 5.12 10.24 15.36 20.48 25.6 15.36s20.48-15.36 15.36-25.6c0-10.24-10.24-51.2 25.6-66.56 10.24-5.12 15.36-15.36 15.36-30.72 0-5.12-5.12-10.24-15.36-10.24zM506.88 145.92c-10.24 0-20.48 10.24-20.48 20.48v92.16c0 10.24 10.24 20.48 20.48 20.48s20.48-10.24 20.48-20.48v-92.16c0-10.24-10.24-20.48-20.48-20.48z" />
<glyph unicode="&#xe901;" glyph-name="airport" d="M691.2-64c-2.048 0-4.147 0.256-6.195 0.768l-198.605 49.664-198.605-49.664c-7.629-1.894-15.77-0.205-21.965 4.659s-9.83 12.288-9.83 20.173v102.4c0 8.909 4.659 17.203 12.237 21.811l111.718 68.403-17.51 175.155-324.147-185.242c-7.936-4.506-17.664-4.506-25.549 0.102s-12.749 13.005-12.749 22.118v102.4c0 7.475 3.277 14.592 8.96 19.456l349.491 299.571c0.666 125.85 11.878 220.518 33.434 281.498 26.47 74.957 65.997 90.675 94.566 90.675s68.096-15.718 94.566-90.675c21.555-61.030 32.768-155.699 33.434-281.498l349.491-299.571c5.683-4.864 8.96-11.981 8.96-19.456v-102.4c0-9.114-4.864-17.562-12.749-22.118s-17.613-4.608-25.549-0.102l-324.147 185.242-17.51-175.155 111.718-68.403c7.578-4.659 12.237-12.902 12.237-21.811v-102.4c0-7.885-3.635-15.309-9.83-20.173-4.557-3.533-10.086-5.427-15.77-5.427zM486.4 38.4c2.099 0 4.147-0.256 6.195-0.768l173.005-43.264v55.245l-113.203 69.325c-8.397 5.12-13.107 14.592-12.083 24.371l23.040 230.4c0.87 8.653 6.042 16.23 13.722 20.224s16.896 3.789 24.422-0.512l320.102-182.886v46.49l-349.44 299.52c-5.683 4.864-8.96 11.981-8.96 19.456 0 245.658-41.37 332.8-76.8 332.8s-76.8-87.142-76.8-332.8c0-7.475-3.277-14.592-8.96-19.456l-349.44-299.52v-46.49l320.102 182.938c7.526 4.301 16.742 4.506 24.422 0.512s12.902-11.571 13.722-20.224l23.040-230.4c0.973-9.779-3.738-19.251-12.083-24.371l-113.203-69.325v-55.245l173.005 43.264c2.048 0.512 4.147 0.768 6.195 0.768z" />
<glyph unicode="&#xe902;" glyph-name="alert" d="M947.2-12.8h-921.6c-9.114 0-17.51 4.813-22.118 12.698s-4.659 17.562-0.205 25.498l460.8 819.2c4.557 8.038 13.056 13.056 22.323 13.056s17.766-4.966 22.323-13.056l460.8-819.2c4.454-7.936 4.352-17.613-0.205-25.498s-13.005-12.698-22.118-12.698zM69.376 38.4h834.048l-417.024 741.376-417.024-741.376zM486.4 243.2c-14.131 0-25.6 11.469-25.6 25.6v256c0 14.131 11.469 25.6 25.6 25.6s25.6-11.469 25.6-25.6v-256c0-14.131-11.469-25.6-25.6-25.6zM486.4 89.6c-14.131 0-25.6 11.469-25.6 25.6v51.2c0 14.131 11.469 25.6 25.6 25.6s25.6-11.469 25.6-25.6v-51.2c0-14.131-11.469-25.6-25.6-25.6z" />
<glyph unicode="&#xe903;" glyph-name="arrow-left" d="M33.075 440.525l307.2 307.2c9.984 9.984 26.214 9.984 36.198 0s9.984-26.214 0-36.198l-263.475-263.475h834.202c14.131 0 25.6-11.469 25.6-25.6s-11.469-25.6-25.6-25.6h-834.202l263.475-263.475c9.984-9.984 9.984-26.214 0-36.198-5.018-5.018-11.571-7.475-18.125-7.475s-13.107 2.509-18.125 7.475l-307.2 307.2c-9.984 9.984-9.984 26.214 0 36.198z" />
<glyph unicode="&#xe904;" glyph-name="arrow-right" d="M990.925 440.525l-307.2 307.2c-9.984 9.984-26.214 9.984-36.198 0s-9.984-26.214 0-36.198l263.475-263.475h-834.202c-14.131 0-25.6-11.469-25.6-25.6s11.469-25.6 25.6-25.6h834.202l-263.475-263.475c-9.984-9.984-9.984-26.214 0-36.198 5.018-5.018 11.571-7.475 18.125-7.475s13.107 2.509 18.125 7.475l307.2 307.2c9.984 9.984 9.984 26.214 0 36.198z" />
<glyph unicode="&#xe905;" glyph-name="back" d="M716.8-64c6.554 0 13.107 2.509 18.125 7.475 9.984 9.984 9.984 26.214 0 36.198l-442.675 442.675 442.675 442.675c9.984 9.984 9.984 26.214 0 36.198s-26.214 9.984-36.198 0l-460.8-460.8c-9.984-9.984-9.984-26.214 0-36.198l460.8-460.8c5.018-5.018 11.571-7.475 18.125-7.475z" />
<glyph unicode="&#xe906;" glyph-name="breakfast" d="M527.36 458.24h-46.080c0 20.48 15.36 46.080 35.84 56.32 25.6 10.24 25.6 25.6 25.6 30.72 0 35.84-87.040 56.32-215.040 56.32v46.080c174.080 0 261.12-35.84 261.12-102.4 0-20.48-5.12-51.2-56.32-71.68 0 0-5.12-10.24-5.12-15.36zM460.8 151.040h-296.96c-25.6 0-51.2 20.48-51.2 51.2l5.12 271.36c0 0 0 5.12-5.12 5.12-46.080 20.48-56.32 51.2-56.32 71.68 0 66.56 87.040 102.4 261.12 102.4v-51.2c-133.12 0-215.040-20.48-215.040-56.32 0-5.12 0-20.48 25.6-30.72 20.48-10.24 30.72-25.6 30.72-46.080l-5.12-271.36c0-5.12 5.12-5.12 5.12-5.12h296.96v-40.96zM276.48 524.8c0-11.311-9.169-20.48-20.48-20.48s-20.48 9.169-20.48 20.48c0 11.311 9.169 20.48 20.48 20.48s20.48-9.169 20.48-20.48zM235.52 437.76c0-11.311-9.169-20.48-20.48-20.48s-20.48 9.169-20.48 20.48c0 11.311 9.169 20.48 20.48 20.48s20.48-9.169 20.48-20.48zM317.44 458.24c0-8.483-6.877-15.36-15.36-15.36s-15.36 6.877-15.36 15.36c0 8.483 6.877 15.36 15.36 15.36s15.36-6.877 15.36-15.36zM599.040 79.36c-199.68 0-261.12 235.52-261.12 363.52 0 5.12 0 10.24 5.12 15.36s10.24 5.12 15.36 5.12h481.28c5.12 0 10.24 0 15.36-5.12s5.12-10.24 5.12-15.36c0-122.88-61.44-363.52-261.12-363.52zM384 422.4c5.12-71.68 46.080-296.96 215.040-296.96 174.080 0 209.92 225.28 215.040 296.96h-430.080zM768 171.52l-10.24 46.080c76.8 15.36 148.48 81.92 158.72 133.12 5.12 20.48-5.12 25.6-10.24 30.72-10.24 10.24-46.080-10.24-66.56-30.72l-30.72 35.84c10.24 10.24 76.8 61.44 122.88 30.72 25.6-15.36 30.72-46.080 25.6-76.8-10.24-66.56-92.16-148.48-189.44-168.96zM634.88 775.68c30.72-20.48 46.080-61.44 25.6-97.28-10.24-15.36-20.48-20.48-30.72-35.84-15.36-15.36-20.48-35.84-25.6-56.32-5.12-46.080 25.6-81.92 66.56-87.040 25.6-5.12 40.96 35.84 10.24 40.96-81.92 15.36-15.36 81.92 5.12 107.52 15.36 20.48 25.6 40.96 25.6 61.44 5.12 46.080-20.48 81.92-56.32 107.52-20.48 10.24-40.96-25.6-20.48-40.96v0zM762.88 529.92c-30.72 15.36 5.12 46.080 15.36 66.56 10.24 15.36 10.24 35.84 0 56.32-15.36 25.6-51.2 0-35.84-20.48 10.24-10.24-15.36-25.6-20.48-35.84s-10.24-20.48-15.36-35.84c0-25.6 10.24-51.2 35.84-61.44 25.6-20.48 46.080 20.48 20.48 30.72v0zM506.88 217.6c-5.12 0-10.24 0-15.36 5.12-46.080 35.84-61.44 117.76-66.56 128 0 10.24 5.12 25.6 15.36 25.6s25.6-5.12 25.6-15.36c5.12-20.48 20.48-76.8 51.2-102.4 10.24-10.24 10.24-20.48 5.12-30.72s-10.24-10.24-15.36-10.24z" />
<glyph unicode="&#xe907;" glyph-name="bus-stand" d="M281.6 140.8c-42.342 0-76.8 34.458-76.8 76.8s34.458 76.8 76.8 76.8 76.8-34.458 76.8-76.8-34.458-76.8-76.8-76.8zM281.6 243.2c-14.131 0-25.6-11.469-25.6-25.6s11.469-25.6 25.6-25.6 25.6 11.469 25.6 25.6-11.469 25.6-25.6 25.6zM742.4 140.8c-42.342 0-76.8 34.458-76.8 76.8s34.458 76.8 76.8 76.8 76.8-34.458 76.8-76.8-34.458-76.8-76.8-76.8zM742.4 243.2c-14.131 0-25.6-11.469-25.6-25.6s11.469-25.6 25.6-25.6 25.6 11.469 25.6 25.6-11.469 25.6-25.6 25.6zM691.2 704h-358.4c-14.131 0-25.6 11.469-25.6 25.6s11.469 25.6 25.6 25.6h358.4c14.131 0 25.6-11.469 25.6-25.6s-11.469-25.6-25.6-25.6zM793.6 652.8h-563.2c-14.131 0-25.6-11.469-25.6-25.6v-256c0-14.131 11.469-25.6 25.6-25.6h255.898c0.051 0 0.051 0 0.102 0s0.051 0 0.102 0h255.795c0.051 0 0.051 0 0.102 0s0.051 0 0.102 0h51.098c14.131 0 25.6 11.469 25.6 25.6v256c0 14.131-11.469 25.6-25.6 25.6zM256 601.6h512v-204.8h-17.869l-147.149 98.099c-11.776 7.834-27.648 4.659-35.482-7.117s-4.659-27.648 7.117-35.482l83.251-55.501h-163.686l-147.149 98.099c-11.776 7.834-27.648 4.659-35.482-7.117s-4.659-27.648 7.117-35.482l83.251-55.501h-145.869v204.8zM799.539 868.71c-69.786 26.573-166.554 40.090-287.539 40.090s-217.702-13.466-287.539-40.090c-100.915-38.451-122.061-96.87-122.061-139.11v-563.2c0-61.798 44.032-113.51 102.4-125.44v-53.76c0-28.211 22.989-51.2 51.2-51.2h51.2c28.211 0 51.2 22.989 51.2 51.2v51.2h307.2v-51.2c0-28.211 22.989-51.2 51.2-51.2h51.2c28.211 0 51.2 22.989 51.2 51.2v53.76c58.368 11.878 102.4 63.59 102.4 125.44v563.2c0 42.24-21.197 100.659-122.061 139.11zM307.2-12.8h-51.2v51.2h51.2v-51.2zM716.8-12.8v51.2h51.2v-51.2h-51.2zM870.4 166.4c0-42.342-34.458-76.8-76.8-76.8h-563.2c-42.342 0-76.8 34.458-76.8 76.8v563.2c0 38.042 30.003 68.762 89.139 91.29 63.078 24.013 156.16 36.71 269.261 36.71s206.234-12.698 269.261-36.71c59.136-22.528 89.139-53.248 89.139-91.29v-563.2z" />
<glyph unicode="&#xe908;" glyph-name="calendar-full" d="M947.2 857.6h-128v25.6c0 14.131-11.469 25.6-25.6 25.6s-25.6-11.469-25.6-25.6v-25.6h-512v25.6c0 14.131-11.469 25.6-25.6 25.6s-25.6-11.469-25.6-25.6v-25.6h-128c-42.342 0-76.8-34.458-76.8-76.8v-716.8c0-42.342 34.458-76.8 76.8-76.8h870.4c42.342 0 76.8 34.458 76.8 76.8v716.8c0 42.342-34.458 76.8-76.8 76.8zM76.8 806.4h128v-76.8c0-14.131 11.469-25.6 25.6-25.6s25.6 11.469 25.6 25.6v76.8h512v-76.8c0-14.131 11.469-25.6 25.6-25.6s25.6 11.469 25.6 25.6v76.8h128c14.131 0 25.6-11.469 25.6-25.6v-128h-921.6v128c0 14.131 11.469 25.6 25.6 25.6zM947.2 38.4h-870.4c-14.131 0-25.6 11.469-25.6 25.6v537.6h921.6v-537.6c0-14.131-11.469-25.6-25.6-25.6zM384 448h-51.2c-14.131 0-25.6 11.469-25.6 25.6s11.469 25.6 25.6 25.6h51.2c14.131 0 25.6-11.469 25.6-25.6s-11.469-25.6-25.6-25.6zM537.6 448h-51.2c-14.131 0-25.6 11.469-25.6 25.6s11.469 25.6 25.6 25.6h51.2c14.131 0 25.6-11.469 25.6-25.6s-11.469-25.6-25.6-25.6zM691.2 448h-51.2c-14.131 0-25.6 11.469-25.6 25.6s11.469 25.6 25.6 25.6h51.2c14.131 0 25.6-11.469 25.6-25.6s-11.469-25.6-25.6-25.6zM844.8 448h-51.2c-14.131 0-25.6 11.469-25.6 25.6s11.469 25.6 25.6 25.6h51.2c14.131 0 25.6-11.469 25.6-25.6s-11.469-25.6-25.6-25.6zM230.4 345.6h-51.2c-14.131 0-25.6 11.469-25.6 25.6s11.469 25.6 25.6 25.6h51.2c14.131 0 25.6-11.469 25.6-25.6s-11.469-25.6-25.6-25.6zM384 345.6h-51.2c-14.131 0-25.6 11.469-25.6 25.6s11.469 25.6 25.6 25.6h51.2c14.131 0 25.6-11.469 25.6-25.6s-11.469-25.6-25.6-25.6zM537.6 345.6h-51.2c-14.131 0-25.6 11.469-25.6 25.6s11.469 25.6 25.6 25.6h51.2c14.131 0 25.6-11.469 25.6-25.6s-11.469-25.6-25.6-25.6zM691.2 345.6h-51.2c-14.131 0-25.6 11.469-25.6 25.6s11.469 25.6 25.6 25.6h51.2c14.131 0 25.6-11.469 25.6-25.6s-11.469-25.6-25.6-25.6zM844.8 345.6h-51.2c-14.131 0-25.6 11.469-25.6 25.6s11.469 25.6 25.6 25.6h51.2c14.131 0 25.6-11.469 25.6-25.6s-11.469-25.6-25.6-25.6zM230.4 243.2h-51.2c-14.131 0-25.6 11.469-25.6 25.6s11.469 25.6 25.6 25.6h51.2c14.131 0 25.6-11.469 25.6-25.6s-11.469-25.6-25.6-25.6zM384 243.2h-51.2c-14.131 0-25.6 11.469-25.6 25.6s11.469 25.6 25.6 25.6h51.2c14.131 0 25.6-11.469 25.6-25.6s-11.469-25.6-25.6-25.6zM537.6 243.2h-51.2c-14.131 0-25.6 11.469-25.6 25.6s11.469 25.6 25.6 25.6h51.2c14.131 0 25.6-11.469 25.6-25.6s-11.469-25.6-25.6-25.6zM691.2 243.2h-51.2c-14.131 0-25.6 11.469-25.6 25.6s11.469 25.6 25.6 25.6h51.2c14.131 0 25.6-11.469 25.6-25.6s-11.469-25.6-25.6-25.6zM844.8 243.2h-51.2c-14.131 0-25.6 11.469-25.6 25.6s11.469 25.6 25.6 25.6h51.2c14.131 0 25.6-11.469 25.6-25.6s-11.469-25.6-25.6-25.6zM230.4 140.8h-51.2c-14.131 0-25.6 11.469-25.6 25.6s11.469 25.6 25.6 25.6h51.2c14.131 0 25.6-11.469 25.6-25.6s-11.469-25.6-25.6-25.6zM384 140.8h-51.2c-14.131 0-25.6 11.469-25.6 25.6s11.469 25.6 25.6 25.6h51.2c14.131 0 25.6-11.469 25.6-25.6s-11.469-25.6-25.6-25.6zM537.6 140.8h-51.2c-14.131 0-25.6 11.469-25.6 25.6s11.469 25.6 25.6 25.6h51.2c14.131 0 25.6-11.469 25.6-25.6s-11.469-25.6-25.6-25.6zM691.2 140.8h-51.2c-14.131 0-25.6 11.469-25.6 25.6s11.469 25.6 25.6 25.6h51.2c14.131 0 25.6-11.469 25.6-25.6s-11.469-25.6-25.6-25.6zM844.8 140.8h-51.2c-14.131 0-25.6 11.469-25.6 25.6s11.469 25.6 25.6 25.6h51.2c14.131 0 25.6-11.469 25.6-25.6s-11.469-25.6-25.6-25.6z" />
<glyph unicode="&#xe909;" glyph-name="check-in" d="M855.040 826.88h-389.12c-35.84 0-66.56-30.72-66.56-66.56v-128c0-10.24 10.24-20.48 20.48-20.48s20.48 10.24 20.48 20.48v128c0 10.24 10.24 20.48 20.48 20.48h327.68l-163.84-71.68c-30.72-10.24-51.2-46.080-51.2-81.92v-409.6h-107.52c-10.24 0-20.48 10.24-20.48 20.48v128c0 10.24-10.24 20.48-20.48 20.48s-20.48-10.24-20.48-20.48v-128c0-35.84 30.72-66.56 66.56-66.56h107.52v-66.56c0-20.48 10.24-35.84 20.48-40.96 5.12-5.12 15.36-5.12 25.6-5.12 5.12 0 15.36 0 20.48 5.12l220.16 97.28c30.72 10.24 51.2 46.080 51.2 81.92v522.24c5.12 35.84-25.6 61.44-61.44 61.44zM875.52 248.32c0-15.36-10.24-35.84-25.6-40.96l-220.16-97.28c-5.12 0-5.12 0-5.12 0s0 5.12 0 5.12v517.12c0 15.36 10.24 35.84 25.6 40.96l230.4 97.28c0-5.12 0-5.12 0-10.24v-512zM460.8 519.68l-128 128c-10.24 10.24-20.48 10.24-30.72 0s-10.24-20.48 0-30.72l92.16-92.16h-271.36c-10.24 0-20.48-10.24-20.48-20.48s10.24-20.48 20.48-20.48h271.36l-92.16-92.16c-10.24-10.24-10.24-20.48 0-30.72 5.12-5.12 10.24-5.12 15.36-5.12s10.24 0 15.36 5.12l128 128c10.24 10.24 10.24 25.6 0 30.72v0z" />
<glyph unicode="&#xe90a;" glyph-name="check-out" d="M609.28 570.88c10.24 0 20.48 10.24 20.48 20.48v174.080c0 35.84-30.72 66.56-66.56 66.56h-389.12c-35.84 0-66.56-30.72-66.56-66.56v-517.12c0-30.72 25.6-66.56 51.2-81.92l220.16-97.28c5.12-5.12 15.36-5.12 20.48-5.12 10.24 0 15.36 0 25.6 5.12 15.36 10.24 20.48 25.6 20.48 40.96v66.56h107.52c35.84 0 66.56 30.72 66.56 66.56v174.080c0 10.24-10.24 20.48-20.48 20.48s-20.48-10.24-20.48-20.48v-174.080c0-10.24-10.24-20.48-20.48-20.48h-97.28v409.6c0 30.72-25.6 66.56-51.2 81.92l-163.84 71.68h327.68c10.24 0 20.48-10.24 20.48-20.48v-174.080c-5.12-10.24 5.12-20.48 15.36-20.48v0zM389.12 673.28c15.36-5.12 25.6-25.6 25.6-40.96v-517.12c0-5.12 0-5.12 0-5.12s-5.12 0-5.12 0l-220.16 97.28c-15.36 5.12-25.6 25.6-25.6 40.96v517.12c0 5.12 0 5.12 0 10.24l225.28-102.4zM901.12 519.68l-128 128c-10.24 10.24-20.48 10.24-30.72 0s-10.24-20.48 0-30.72l92.16-92.16h-271.36c-10.24 0-20.48-10.24-20.48-20.48s10.24-20.48 20.48-20.48h271.36l-92.16-92.16c-10.24-10.24-10.24-20.48 0-30.72 5.12-5.12 10.24-5.12 15.36-5.12s10.24 0 15.36 5.12l128 128c10.24 10.24 10.24 25.6 0 30.72v0z" />
<glyph unicode="&#xe90b;" glyph-name="checkmark-circle" d="M486.4-64c-129.946 0-252.058 50.586-343.962 142.438s-142.438 214.016-142.438 343.91c0 129.946 50.586 252.058 142.438 343.962s214.016 142.49 343.962 142.49c129.946 0 252.058-50.586 343.962-142.49s142.438-214.016 142.438-343.962-50.586-252.058-142.438-343.91c-91.853-91.853-214.016-142.438-343.962-142.438zM486.4 857.6c-239.974 0-435.2-195.226-435.2-435.2s195.226-435.2 435.2-435.2 435.2 195.226 435.2 435.2-195.226 435.2-435.2 435.2zM384 217.6c-6.554 0-13.107 2.509-18.125 7.475l-153.6 153.6c-9.984 9.984-9.984 26.214 0 36.198s26.214 9.984 36.198 0l135.475-135.475 340.275 340.275c9.984 9.984 26.214 9.984 36.198 0s9.984-26.214 0-36.198l-358.4-358.4c-5.018-5.018-11.571-7.475-18.125-7.475z" />
<glyph unicode="&#xe90c;" glyph-name="cross-circle" d="M733.798 236.749l-208.896 185.651 208.896 185.651c10.547 9.37 11.52 25.549 2.15 36.147s-25.549 11.52-36.147 2.15l-213.402-189.696-213.402 189.696c-10.547 9.37-26.726 8.448-36.147-2.15s-8.448-26.726 2.15-36.147l208.896-185.651-208.896-185.651c-10.547-9.37-11.52-25.549-2.15-36.147 5.069-5.683 12.083-8.602 19.149-8.602 6.042 0 12.134 2.15 16.998 6.451l213.402 189.696 213.402-189.696c4.864-4.352 10.957-6.451 16.998-6.451 7.066 0 14.080 2.918 19.149 8.602 9.37 10.547 8.448 26.726-2.15 36.147zM486.4-64c-129.946 0-252.058 50.586-343.962 142.438s-142.438 214.016-142.438 343.91c0 129.946 50.586 252.058 142.438 343.962s214.016 142.49 343.962 142.49c129.946 0 252.058-50.586 343.962-142.49s142.438-214.016 142.438-343.962-50.586-252.058-142.438-343.91c-91.853-91.853-214.016-142.438-343.962-142.438zM486.4 857.6c-239.974 0-435.2-195.226-435.2-435.2s195.226-435.2 435.2-435.2 435.2 195.226 435.2 435.2-195.226 435.2-435.2 435.2z" />
<glyph unicode="&#xe90d;" glyph-name="cross" d="M548.198 422.4l289.075 289.075c9.984 9.984 9.984 26.214 0 36.198s-26.214 9.984-36.198 0l-289.075-289.075-289.075 289.075c-9.984 9.984-26.214 9.984-36.198 0s-9.984-26.214 0-36.198l289.075-289.075-289.075-289.075c-9.984-9.984-9.984-26.214 0-36.198 5.018-5.018 11.571-7.475 18.125-7.475s13.107 2.509 18.125 7.475l289.075 289.075 289.075-289.075c5.018-5.018 11.571-7.475 18.125-7.475s13.107 2.509 18.125 7.475c9.984 9.984 9.984 26.214 0 36.198l-289.075 289.075z" />
<glyph unicode="&#xe90e;" glyph-name="deals" d="M793.6 550.4c-42.342 0-76.8 34.458-76.8 76.8s34.458 76.8 76.8 76.8 76.8-34.458 76.8-76.8-34.458-76.8-76.8-76.8zM793.6 652.8c-14.131 0-25.6-11.469-25.6-25.6s11.469-25.6 25.6-25.6 25.6 11.469 25.6 25.6-11.469 25.6-25.6 25.6zM896 806.4h-179.2c-35.226 0-80.589-18.79-105.523-43.725l-388.403-388.403c-14.49-14.49-22.426-33.741-22.426-54.323s7.987-39.834 22.426-54.323l133.222-133.222-56.064-32.358c-5.888-3.379-12.749-4.25-19.405-2.509s-12.186 5.99-15.565 11.878l-184.115 318.925c-7.066 12.237-2.867 27.904 9.37 34.97l408.883 236.083c12.237 7.066 16.435 22.733 9.37 34.97s-22.733 16.435-34.97 9.37l-408.883-236.083c-17.715-10.24-30.413-26.778-35.738-46.643s-2.611-40.55 7.629-58.266l184.115-318.925c10.24-17.715 26.778-30.413 46.643-35.738 6.656-1.792 13.414-2.662 20.070-2.662 13.312 0 26.368 3.482 38.195 10.291l67.942 39.219 38.502-38.502c14.49-14.49 33.741-22.426 54.323-22.426s39.834 7.987 54.323 22.426l388.403 388.403c24.934 24.934 43.674 70.246 43.674 105.523v179.2c0 42.342-34.458 76.8-76.8 76.8zM921.6 550.4c0-21.248-13.67-54.272-28.723-69.325l-388.403-388.403c-4.813-4.813-11.213-7.424-18.125-7.424s-13.312 2.662-18.125 7.424l-209.203 209.203c-4.813 4.813-7.424 11.213-7.424 18.074s2.662 13.312 7.424 18.125l388.403 388.403c15.002 15.002 48.077 28.723 69.274 28.723h179.2c14.131 0 25.6-11.469 25.6-25.6v-179.2z" />
<glyph unicode="&#xe90f;" glyph-name="down-arrow" d="M0 652.8c0 6.554 2.509 13.107 7.475 18.125 9.984 9.984 26.214 9.984 36.198 0l442.675-442.675 442.675 442.675c9.984 9.984 26.214 9.984 36.198 0s9.984-26.214 0-36.198l-460.8-460.8c-9.984-9.984-26.214-9.984-36.198 0l-460.8 460.8c-5.018 5.018-7.475 11.571-7.475 18.125z" />
<glyph unicode="&#xe910;" glyph-name="download" d="M760.474 466.074c-9.984 9.984-26.214 9.984-36.198 0l-212.275-212.275v578.202c0 14.131-11.469 25.6-25.6 25.6s-25.6-11.469-25.6-25.6v-578.202l-212.275 212.275c-9.984 9.984-26.214 9.984-36.198 0s-9.984-26.214 0-36.198l256-256c5.018-5.018 11.571-7.475 18.125-7.475s13.107 2.509 18.125 7.526l256 256c9.984 9.984 9.984 26.214 0 36.198zM896-12.8h-819.2c-42.342 0-76.8 34.458-76.8 76.8v102.4c0 14.131 11.469 25.6 25.6 25.6s25.6-11.469 25.6-25.6v-102.4c0-14.131 11.469-25.6 25.6-25.6h819.2c14.131 0 25.6 11.469 25.6 25.6v102.4c0 14.131 11.469 25.6 25.6 25.6s25.6-11.469 25.6-25.6v-102.4c0-42.342-34.458-76.8-76.8-76.8z" />
<glyph unicode="&#xe911;" glyph-name="fb" d="M737.28 903.68h-117.76c-133.12 0-220.16-87.040-220.16-225.28v-102.4h-117.76c-10.24 0-20.48-10.24-20.48-20.48v-148.48c0-10.24 10.24-20.48 20.48-20.48h117.76v-378.88c0-10.24 10.24-20.48 20.48-20.48h153.6c10.24 0 20.48 10.24 20.48 20.48v378.88h138.24c10.24 0 20.48 10.24 20.48 20.48v148.48c0 5.12 0 10.24-5.12 15.36s-10.24 5.12-15.36 5.12h-138.24v87.040c0 40.96 10.24 61.44 66.56 61.44h81.92c10.24 0 20.48 10.24 20.48 20.48v138.24c-5.12 10.24-15.36 20.48-25.6 20.48z" />
<glyph unicode="&#xe912;" glyph-name="feedback-icon" d="M25.6-12.8c-11.52 0-21.606 7.68-24.678 18.79s1.638 22.886 11.52 28.774c86.579 51.917 122.47 127.437 135.219 162.765-94.106 72.038-147.661 171.725-147.661 276.070 0 52.685 13.21 103.731 39.322 151.757 24.883 45.773 60.416 86.784 105.523 121.907 91.494 71.168 212.787 110.387 341.555 110.387s250.061-39.219 341.555-110.387c45.107-35.072 80.64-76.083 105.523-121.907 26.112-47.974 39.322-99.021 39.322-151.757s-13.21-103.731-39.322-151.757c-24.883-45.773-60.416-86.784-105.523-121.907-91.494-71.168-212.787-110.387-341.555-110.387-52.89 0-104.806 6.605-154.419 19.712-21.965-14.643-63.027-40.602-112.077-65.024-76.186-37.888-141.517-57.088-194.253-57.088zM486.4 806.4c-239.974 0-435.2-149.299-435.2-332.8 0-92.928 51.456-182.374 141.107-245.35 8.806-6.195 12.8-17.203 10.035-27.597-5.99-22.323-26.368-83.61-80.896-142.746 66.662 23.347 138.445 63.846 191.437 100.301 6.298 4.352 14.182 5.632 21.555 3.533 48.538-13.875 99.686-20.941 151.962-20.941 239.974 0 435.2 149.299 435.2 332.8s-195.226 332.8-435.2 332.8zM486.4 396.8c-42.342 0-76.8 34.458-76.8 76.8s34.458 76.8 76.8 76.8c42.342 0 76.8-34.458 76.8-76.8s-34.458-76.8-76.8-76.8zM486.4 499.2c-14.131 0-25.6-11.469-25.6-25.6s11.469-25.6 25.6-25.6 25.6 11.469 25.6 25.6-11.469 25.6-25.6 25.6zM691.2 396.8c-42.342 0-76.8 34.458-76.8 76.8s34.458 76.8 76.8 76.8 76.8-34.458 76.8-76.8c0-42.342-34.458-76.8-76.8-76.8zM691.2 499.2c-14.131 0-25.6-11.469-25.6-25.6s11.469-25.6 25.6-25.6 25.6 11.469 25.6 25.6-11.469 25.6-25.6 25.6zM281.6 396.8c-42.342 0-76.8 34.458-76.8 76.8s34.458 76.8 76.8 76.8 76.8-34.458 76.8-76.8c0-42.342-34.458-76.8-76.8-76.8zM281.6 499.2c-14.131 0-25.6-11.469-25.6-25.6s11.469-25.6 25.6-25.6 25.6 11.469 25.6 25.6-11.469 25.6-25.6 25.6z" />
<glyph unicode="&#xe913;" glyph-name="google" d="M834.56 519.68v112.64h-76.8v-112.64h-112.64v-76.8h112.64v-112.64h76.8v112.64h112.64v76.8h-112.64zM537.6 386.56l-40.96 30.72c-15.36 10.24-30.72 25.6-30.72 51.2s20.48 51.2 35.84 61.44c51.2 35.84 97.28 81.92 97.28 163.84s-51.2 128-76.8 148.48h66.56l46.080 51.2h-235.52c-168.96 0-250.88-107.52-250.88-220.16 0-87.040 66.56-184.32 189.44-184.32h30.72c-5.12-10.24-15.36-30.72-15.36-51.2 0-35.84 15.36-51.2 35.84-76.8-51.2-5.12-153.6-15.36-225.28-61.44-66.56-40.96-87.040-97.28-87.040-143.36 0-87.040 81.92-174.080 250.88-174.080 204.8 0 307.2 112.64 307.2 225.28 0 92.16-40.96 133.12-97.28 179.2zM245.76 739.84c0 81.92 51.2 122.88 102.4 122.88 97.28 0 153.6-133.12 153.6-209.92 0-97.28-81.92-117.76-112.64-117.76-92.16-5.12-143.36 112.64-143.36 204.8zM384 48.64c-128 0-204.8 56.32-204.8 143.36 0 81.92 76.8 112.64 97.28 122.88 51.2 15.36 112.64 20.48 128 20.48s20.48 0 25.6 0c92.16-66.56 128-92.16 128-153.6 5.12-76.8-66.56-133.12-174.080-133.12z" />
<glyph unicode="&#xe914;" glyph-name="gym" d="M25.6 345.6c-14.131 0-25.6 11.469-25.6 25.6v102.4c0 14.131 11.469 25.6 25.6 25.6s25.6-11.469 25.6-25.6v-102.4c0-14.131-11.469-25.6-25.6-25.6zM998.4 345.6c-14.131 0-25.6 11.469-25.6 25.6v102.4c0 14.131 11.469 25.6 25.6 25.6s25.6-11.469 25.6-25.6v-102.4c0-14.131-11.469-25.6-25.6-25.6zM896 601.6c-8.96 0-17.562-1.587-25.6-4.403v30.003c0 42.342-34.458 76.8-76.8 76.8s-76.8-34.458-76.8-76.8v-179.2h-409.6v179.2c0 42.342-34.458 76.8-76.8 76.8s-76.8-34.458-76.8-76.8v-30.003c-8.038 2.867-16.64 4.403-25.6 4.403-42.342 0-76.8-34.458-76.8-76.8v-204.8c0-42.342 34.458-76.8 76.8-76.8 8.96 0 17.562 1.587 25.6 4.403v-30.003c0-42.342 34.458-76.8 76.8-76.8s76.8 34.458 76.8 76.8v179.2h409.6v-179.2c0-42.342 34.458-76.8 76.8-76.8s76.8 34.458 76.8 76.8v30.003c8.038-2.867 16.64-4.403 25.6-4.403 42.342 0 76.8 34.458 76.8 76.8v204.8c0 42.342-34.458 76.8-76.8 76.8zM128 294.4c-14.131 0-25.6 11.469-25.6 25.6v204.8c0 14.131 11.469 25.6 25.6 25.6s25.6-11.469 25.6-25.6v-204.8c0-14.131-11.469-25.6-25.6-25.6zM256 217.6c0-14.131-11.469-25.6-25.6-25.6s-25.6 11.469-25.6 25.6v409.6c0 14.131 11.469 25.6 25.6 25.6s25.6-11.469 25.6-25.6v-409.6zM819.2 217.6c0-14.131-11.469-25.6-25.6-25.6s-25.6 11.469-25.6 25.6v409.6c0 14.131 11.469 25.6 25.6 25.6s25.6-11.469 25.6-25.6v-409.6zM921.6 320c0-14.131-11.469-25.6-25.6-25.6s-25.6 11.469-25.6 25.6v204.8c0 14.131 11.469 25.6 25.6 25.6s25.6-11.469 25.6-25.6v-204.8z" />
<glyph unicode="&#xe915;" glyph-name="hotel-room" d="M353.28 12.8c-5.12 0-10.24 0-15.36 5.12s-10.24 10.24-10.24 15.36v829.44c0 5.12 5.12 10.24 10.24 15.36s10.24 5.12 20.48 5.12l491.52-66.56c10.24 0 20.48-10.24 20.48-20.48v-691.2c0-10.24-10.24-20.48-20.48-20.48l-496.64-71.68c5.12 0 0 0 0 0zM378.88 837.12v-778.24l450.56 66.56v650.24l-450.56 61.44zM353.28 38.4h-179.2c-10.24 0-20.48 10.24-20.48 20.48v757.76c0 10.24 10.24 20.48 20.48 20.48h179.2c10.24 0 20.48-10.24 20.48-20.48v-757.76c5.12-10.24-5.12-20.48-20.48-20.48zM199.68 84.48h133.12v711.68h-133.12v-711.68zM496.64 458.24c0-28.277-18.338-51.2-40.96-51.2s-40.96 22.923-40.96 51.2c0 28.277 18.338 51.2 40.96 51.2s40.96-22.923 40.96-51.2z" />
<glyph unicode="&#xe916;" glyph-name="iron-board" d="M947.2 529.92h-865.28c-10.24 0-20.48 10.24-20.48 20.48s10.24 20.48 20.48 20.48h865.28c10.24 0 20.48-10.24 20.48-20.48s-10.24-20.48-20.48-20.48zM194.56 43.52c-5.12 0-15.36 5.12-20.48 10.24-10.24 10.24-5.12 25.6 5.12 30.72l634.88 486.4c10.24 5.12 25.6 5.12 30.72-5.12 10.24-10.24 5.12-25.6-5.12-30.72l-634.88-486.4c0-5.12-5.12-5.12-10.24-5.12zM829.44 43.52c-5.12 0-10.24 0-15.36 5.12l-634.88 486.4c-10.24 10.24-10.24 20.48-5.12 30.72 10.24 10.24 20.48 10.24 30.72 5.12l634.88-486.4c10.24-10.24 10.24-20.48 5.12-30.72 0-10.24-10.24-10.24-15.36-10.24zM757.76 591.36h-296.96c-10.24 0-20.48 10.24-20.48 20.48 0 5.12 0 35.84 30.72 71.68 51.2 51.2 148.48 76.8 286.72 76.8 10.24 0 20.48-10.24 20.48-20.48v-128c0-10.24-10.24-20.48-20.48-20.48zM491.52 637.44h240.64v81.92c-143.36-5.12-204.8-35.84-230.4-66.56-5.12-5.12-10.24-10.24-10.24-15.36zM757.76 714.24c-10.24 0-20.48 10.24-20.48 20.48v71.68h-179.2c-10.24 0-20.48 10.24-20.48 20.48s10.24 20.48 20.48 20.48h204.8c10.24 0 20.48-10.24 20.48-20.48v-97.28c-5.12-5.12-15.36-15.36-25.6-15.36z" />
<glyph unicode="&#xe917;" glyph-name="king-bed" d="M870.4-7.68h-716.8c-40.96 0-76.8 35.84-76.8 76.8v757.76c0 40.96 35.84 76.8 76.8 76.8h716.8c40.96 0 76.8-35.84 76.8-76.8v-757.76c0-40.96-35.84-76.8-76.8-76.8zM153.6 857.6c-15.36 0-30.72-15.36-30.72-30.72v-757.76c0-15.36 15.36-30.72 30.72-30.72h716.8c15.36 0 30.72 15.36 30.72 30.72v757.76c0 15.36-15.36 30.72-30.72 30.72h-716.8zM404.48 652.8h-179.2c-30.72 0-51.2 25.6-51.2 51.2v71.68c0 30.72 25.6 51.2 51.2 51.2h179.2c30.72 0 51.2-25.6 51.2-51.2v-71.68c5.12-25.6-20.48-51.2-51.2-51.2zM225.28 785.92c-5.12 0-10.24-5.12-10.24-10.24v-71.68c0-5.12 5.12-10.24 10.24-10.24h179.2c5.12 0 10.24 5.12 10.24 10.24v71.68c0 5.12-5.12 10.24-10.24 10.24h-179.2zM803.84 652.8h-179.2c-30.72 0-51.2 25.6-51.2 51.2v71.68c0 30.72 25.6 51.2 51.2 51.2h179.2c30.72 0 51.2-25.6 51.2-51.2v-71.68c0-25.6-20.48-51.2-51.2-51.2zM624.64 785.92c-5.12 0-10.24-5.12-10.24-10.24v-71.68c0-5.12 5.12-10.24 10.24-10.24h179.2c5.12 0 10.24 5.12 10.24 10.24v71.68c0 5.12-5.12 10.24-10.24 10.24h-179.2zM102.4 550.4h808.96v-46.080h-808.96v46.080z" />
<glyph unicode="&#xe918;" glyph-name="laundry" d="M716.8 780.8c0-14.131-11.469-25.6-25.6-25.6s-25.6 11.469-25.6 25.6c0 14.131 11.469 25.6 25.6 25.6s25.6-11.469 25.6-25.6zM819.2 780.8c0-14.131-11.469-25.6-25.6-25.6s-25.6 11.469-25.6 25.6c0 14.131 11.469 25.6 25.6 25.6s25.6-11.469 25.6-25.6zM486.4 38.4c-155.29 0-281.6 126.31-281.6 281.6s126.31 281.6 281.6 281.6 281.6-126.31 281.6-281.6-126.31-281.6-281.6-281.6zM486.4 550.4c-127.027 0-230.4-103.373-230.4-230.4s103.373-230.4 230.4-230.4c127.027 0 230.4 103.373 230.4 230.4s-103.373 230.4-230.4 230.4zM486.4 140.8c-14.131 0-25.6 11.469-25.6 25.6s11.469 25.6 25.6 25.6c70.554 0 128 57.446 128 128 0 14.131 11.469 25.6 25.6 25.6s25.6-11.469 25.6-25.6c0-98.816-80.384-179.2-179.2-179.2zM793.6 908.8h-614.4c-70.554 0-128-57.446-128-128v-768c0-42.342 34.458-76.8 76.8-76.8h716.8c42.342 0 76.8 34.458 76.8 76.8v768c0 70.554-57.446 128-128 128zM179.2 857.6h614.4c42.342 0 76.8-34.458 76.8-76.8v-76.8h-768v76.8c0 42.342 34.458 76.8 76.8 76.8zM870.4 12.8c0-14.131-11.469-25.6-25.6-25.6h-716.8c-14.131 0-25.6 11.469-25.6 25.6v640h768v-640zM281.6 755.2h-102.4c-14.131 0-25.6 11.469-25.6 25.6s11.469 25.6 25.6 25.6h102.4c14.131 0 25.6-11.469 25.6-25.6s-11.469-25.6-25.6-25.6z" />
<glyph unicode="&#xe919;" glyph-name="left-circle" d="M142.438 766.362c91.853 91.853 214.016 142.438 343.962 142.438s252.058-50.586 343.962-142.438 142.438-214.016 142.438-343.91-50.586-252.058-142.438-343.962-214.016-142.438-343.962-142.438-252.058 50.586-343.962 142.438-142.438 214.016-142.438 343.962 50.586 252.058 142.438 343.91zM486.4-12.8c239.974 0 435.2 195.226 435.2 435.2s-195.226 435.2-435.2 435.2c-239.974 0-435.2-195.226-435.2-435.2s195.226-435.2 435.2-435.2zM563.2 140.8c6.554 0 13.107 2.509 18.125 7.475 9.984 9.984 9.984 26.214 0 36.198l-237.875 237.875 237.875 237.875c9.984 9.984 9.984 26.214 0 36.198s-26.214 9.984-36.198 0l-256-256c-9.984-9.984-9.984-26.214 0-36.198l256-256c5.018-5.018 11.571-7.475 18.125-7.475z" />
<glyph unicode="&#xe91a;" glyph-name="linkedin" d="M885.76 366.080v-276.48h-158.72v261.12c0 66.56-25.6 107.52-81.92 107.52-46.080 0-71.68-30.72-81.92-56.32-5.12-10.24-5.12-25.6-5.12-40.96v-271.36h-158.72c0 0 0 440.32 0 486.4h158.72v-66.56c0 0 0 0 0 0v0 0c20.48 30.72 61.44 81.92 143.36 81.92 107.52-5.12 184.32-76.8 184.32-225.28zM225.28 806.4c-56.32 0-92.16-35.84-92.16-81.92s35.84-81.92 87.040-81.92v0c56.32 0 92.16 35.84 92.16 81.92 5.12 46.080-30.72 81.92-87.040 81.92zM148.48 89.6h158.72v486.4h-158.72v-486.4z" />
<glyph unicode="&#xe91b;" glyph-name="location" d="M512-64c-7.834 0-15.258 3.584-20.122 9.779-2.918 3.738-72.602 92.877-143.206 224.512-41.574 77.466-74.752 153.549-98.56 226.099-30.054 91.494-45.261 177.766-45.261 256.41 0 169.37 137.83 307.2 307.2 307.2s307.2-137.83 307.2-307.2c0-78.643-15.258-164.864-45.261-256.41-23.808-72.55-56.986-148.634-98.56-226.099-70.656-131.635-140.288-220.774-143.206-224.512-4.864-6.195-12.288-9.779-20.122-9.779zM512 908.8c-141.158 0-256-114.842-256-256 0-166.605 74.906-341.197 137.779-458.291 46.182-86.067 92.621-154.317 118.221-189.952 25.702 35.789 72.448 104.448 118.682 190.771 62.618 116.89 137.318 291.174 137.318 457.472 0 141.158-114.842 256-256 256zM512 499.2c-84.685 0-153.6 68.915-153.6 153.6s68.915 153.6 153.6 153.6 153.6-68.915 153.6-153.6-68.915-153.6-153.6-153.6zM512 755.2c-56.474 0-102.4-45.926-102.4-102.4s45.926-102.4 102.4-102.4c56.474 0 102.4 45.926 102.4 102.4s-45.926 102.4-102.4 102.4z" />
<glyph unicode="&#xe91c;" glyph-name="mail" d="M896 652.8h-819.2c-42.342 0-76.8-34.458-76.8-76.8v-460.8c0-42.342 34.458-76.8 76.8-76.8h819.2c42.342 0 76.8 34.458 76.8 76.8v460.8c0 42.342-34.458 76.8-76.8 76.8zM896 601.6c1.536 0 2.97-0.154 4.454-0.41l-385.638-257.075c-14.848-9.882-41.933-9.882-56.781 0l-385.638 257.075c1.434 0.256 2.918 0.41 4.454 0.41h819.2zM896 89.6h-819.2c-14.131 0-25.6 11.469-25.6 25.6v438.579l378.419-252.262c15.923-10.598 36.352-15.923 56.781-15.923s40.858 5.325 56.781 15.923l378.419 252.262v-438.579c0-14.131-11.469-25.6-25.6-25.6z" />
<glyph unicode="&#xe91d;" glyph-name="parking" d="M281.6 140.8c-42.342 0-76.8 34.458-76.8 76.8s34.458 76.8 76.8 76.8 76.8-34.458 76.8-76.8-34.458-76.8-76.8-76.8zM281.6 243.2c-14.131 0-25.6-11.469-25.6-25.6s11.469-25.6 25.6-25.6 25.6 11.469 25.6 25.6-11.469 25.6-25.6 25.6zM742.4 140.8c-42.342 0-76.8 34.458-76.8 76.8s34.458 76.8 76.8 76.8 76.8-34.458 76.8-76.8-34.458-76.8-76.8-76.8zM742.4 243.2c-14.131 0-25.6-11.469-25.6-25.6s11.469-25.6 25.6-25.6 25.6 11.469 25.6 25.6-11.469 25.6-25.6 25.6zM868.25 350.362c-6.656 40.55-28.314 164.557-51.763 211.507-15.616 31.232-55.706 55.142-119.091 70.963-51.507 12.851-117.35 19.968-185.395 19.968s-133.888-7.066-185.395-19.968c-63.386-15.872-103.475-39.731-119.091-70.963-23.45-46.899-45.107-170.957-51.763-211.507-35.789-24.525-53.35-60.006-53.35-107.162v-128c0-33.382 21.402-61.85 51.2-72.397v-55.603c0-28.211 22.989-51.2 51.2-51.2h51.2c28.211 0 51.2 22.989 51.2 51.2v51.2h409.6v-51.2c0-28.211 22.989-51.2 51.2-51.2h51.2c28.211 0 51.2 22.989 51.2 51.2v55.603c29.798 10.547 51.2 39.014 51.2 72.397v128c0 47.155-17.562 82.637-53.35 107.162zM253.286 538.931c15.206 30.362 111.002 62.669 258.714 62.669s243.507-32.256 258.714-62.669c14.694-29.44 31.027-107.315 41.114-162.97-5.018 1.485-10.189 2.867-15.514 4.096-13.67 3.226-28.416 5.837-44.186 7.987l-148.429 106.342c-11.469 8.243-27.494 5.581-35.738-5.888s-5.581-27.494 5.888-35.738l80.179-57.446c-43.52 1.434-91.238 1.434-142.080 1.434-5.99 0-11.93 0-17.869 0l-147.149 98.099c-11.776 7.834-27.648 4.659-35.482-7.117s-4.659-27.648 7.117-35.482l84.173-56.115c-68.659-1.229-128.358-4.966-175.104-16.077-5.325-1.28-10.496-2.662-15.514-4.096 10.138 55.654 26.419 133.53 41.165 162.97zM256-12.8h-51.2v51.2h51.2v-51.2zM768-12.8v51.2h51.2v-51.2h-51.2zM870.4 115.2c0-14.131-11.469-25.6-25.6-25.6h-665.6c-14.131 0-25.6 11.469-25.6 25.6v128c0 47.309 24.883 72.55 85.914 87.091 64.256 15.309 160.768 15.309 272.486 15.309s208.179 0 272.486-15.309c61.030-14.541 85.914-39.782 85.914-87.091v-128z" />
<glyph unicode="&#xe91e;" glyph-name="person" d="M486.4 396.8c-155.29 0-281.6 126.31-281.6 281.6s126.31 281.6 281.6 281.6 281.6-126.31 281.6-281.6-126.31-281.6-281.6-281.6zM486.4 908.8c-127.027 0-230.4-103.373-230.4-230.4s103.373-230.4 230.4-230.4c127.027 0 230.4 103.373 230.4 230.4s-103.373 230.4-230.4 230.4zM896-64h-819.2c-42.342 0-76.8 34.458-76.8 76.8 0 3.482 0.717 86.272 62.72 168.96 36.096 48.128 85.504 86.374 146.893 113.613 74.957 33.331 168.090 50.227 276.787 50.227s201.83-16.896 276.787-50.227c61.389-27.29 110.797-65.485 146.893-113.613 62.003-82.688 62.72-165.478 62.72-168.96 0-42.342-34.458-76.8-76.8-76.8zM486.4 294.4c-178.534 0-310.272-48.794-380.979-141.107-52.992-69.171-54.17-139.878-54.221-140.595 0-14.029 11.469-25.498 25.6-25.498h819.2c14.131 0 25.6 11.469 25.6 25.6 0 0.614-1.178 71.322-54.221 140.493-70.758 92.314-202.496 141.107-380.979 141.107z" />
<glyph unicode="&#xe91f;" glyph-name="plus-circle" d="M830.362 766.362c-91.853 91.853-214.016 142.438-343.962 142.438s-252.058-50.586-343.962-142.438-142.438-214.016-142.438-343.91 50.586-252.058 142.438-343.962 214.016-142.438 343.962-142.438 252.058 50.586 343.962 142.438 142.438 214.016 142.438 343.962-50.586 252.058-142.438 343.91zM486.4-12.8c-239.974 0-435.2 195.226-435.2 435.2s195.226 435.2 435.2 435.2c239.974 0 435.2-195.226 435.2-435.2s-195.226-435.2-435.2-435.2zM793.6 448h-281.6v281.6c0 14.131-11.469 25.6-25.6 25.6s-25.6-11.469-25.6-25.6v-281.6h-281.6c-14.131 0-25.6-11.469-25.6-25.6s11.469-25.6 25.6-25.6h281.6v-281.6c0-14.131 11.469-25.6 25.6-25.6s25.6 11.469 25.6 25.6v281.6h281.6c14.131 0 25.6 11.469 25.6 25.6s-11.469 25.6-25.6 25.6z" />
<glyph unicode="&#xe920;" glyph-name="pool" d="M665.6 499.2c-56.474 0-102.4 45.926-102.4 102.4s45.926 102.4 102.4 102.4 102.4-45.926 102.4-102.4-45.926-102.4-102.4-102.4zM665.6 652.8c-28.211 0-51.2-22.989-51.2-51.2s22.989-51.2 51.2-51.2 51.2 22.989 51.2 51.2-22.989 51.2-51.2 51.2zM281.6 499.2c-8.294 0-16.384 3.994-21.35 11.418-7.834 11.776-4.659 27.648 7.117 35.482l153.6 102.4c11.315 7.526 26.522 4.915 34.662-5.939l76.8-102.4c8.499-11.315 6.195-27.341-5.12-35.84s-27.341-6.195-35.84 5.12l-62.259 83.046-133.427-88.986c-4.352-2.918-9.318-4.301-14.182-4.301zM896 294.4c-7.782 0-15.411 3.533-20.48 10.189v0c-0.717 0.922-71.27 92.211-184.371 92.211-58.573 0-112.128-23.808-168.806-48.998-59.085-26.266-120.166-53.402-189.594-53.402-139.213 0-221.85 108.032-225.28 112.64-8.499 11.315-6.195 27.341 5.12 35.84s27.341 6.195 35.84-5.12c0.666-0.87 71.219-92.16 184.32-92.16 58.573 0 112.128 23.808 168.806 48.998 59.085 26.266 120.166 53.402 189.594 53.402 139.213 0 221.85-108.032 225.28-112.64 8.499-11.315 6.195-27.341-5.12-35.84-4.608-3.43-9.984-5.12-15.36-5.12zM896 140.8c-7.782 0-15.411 3.533-20.48 10.189v0c-0.717 0.922-71.27 92.211-184.371 92.211-58.573 0-112.128-23.808-168.806-48.998-59.085-26.266-120.166-53.402-189.594-53.402-139.213 0-221.85 108.032-225.28 112.64-8.499 11.315-6.195 27.341 5.12 35.84s27.341 6.195 35.84-5.12c0.666-0.87 71.219-92.16 184.32-92.16 58.573 0 112.128 23.808 168.806 48.998 59.085 26.266 120.166 53.402 189.594 53.402 139.213 0 221.85-108.032 225.28-112.64 8.499-11.315 6.195-27.341-5.12-35.84-4.608-3.43-9.984-5.12-15.36-5.12z" />
<glyph unicode="&#xe921;" glyph-name="print" d="M947.2 755.2h-76.8v128c0 42.342-34.458 76.8-76.8 76.8h-563.2c-42.342 0-76.8-34.458-76.8-76.8v-128h-76.8c-42.342 0-76.8-34.458-76.8-76.8v-460.8c0-42.342 34.458-76.8 76.8-76.8h76.8v-128c0-42.342 34.458-76.8 76.8-76.8h563.2c42.342 0 76.8 34.458 76.8 76.8v128h76.8c42.342 0 76.8 34.458 76.8 76.8v460.8c0 42.342-34.458 76.8-76.8 76.8zM204.8 883.2c0 14.131 11.469 25.6 25.6 25.6h563.2c14.131 0 25.6-11.469 25.6-25.6v-128h-614.4v128zM793.6-12.8h-563.2c-14.131 0-25.6 11.469-25.6 25.6v332.8h614.4v-332.8c0-14.131-11.469-25.6-25.6-25.6zM972.8 217.6c0-14.131-11.469-25.6-25.6-25.6h-76.8v153.6h25.6c14.131 0 25.6 11.469 25.6 25.6s-11.469 25.6-25.6 25.6h-768c-14.131 0-25.6-11.469-25.6-25.6s11.469-25.6 25.6-25.6h25.6v-153.6h-76.8c-14.131 0-25.6 11.469-25.6 25.6v460.8c0 14.131 11.469 25.6 25.6 25.6h870.4c14.131 0 25.6-11.469 25.6-25.6v-460.8zM742.4 243.2h-460.8c-14.131 0-25.6 11.469-25.6 25.6s11.469 25.6 25.6 25.6h460.8c14.131 0 25.6-11.469 25.6-25.6s-11.469-25.6-25.6-25.6zM742.4 140.8h-460.8c-14.131 0-25.6 11.469-25.6 25.6s11.469 25.6 25.6 25.6h460.8c14.131 0 25.6-11.469 25.6-25.6s-11.469-25.6-25.6-25.6zM742.4 38.4h-460.8c-14.131 0-25.6 11.469-25.6 25.6s11.469 25.6 25.6 25.6h460.8c14.131 0 25.6-11.469 25.6-25.6s-11.469-25.6-25.6-25.6zM844.8 499.2c-42.342 0-76.8 34.458-76.8 76.8s34.458 76.8 76.8 76.8 76.8-34.458 76.8-76.8-34.458-76.8-76.8-76.8zM844.8 601.6c-14.131 0-25.6-11.469-25.6-25.6s11.469-25.6 25.6-25.6 25.6 11.469 25.6 25.6-11.469 25.6-25.6 25.6z" />
<glyph unicode="&#xe922;" glyph-name="queen-bed" d="M778.24-7.68h-532.48c-40.96 0-76.8 35.84-76.8 76.8v757.76c0 40.96 35.84 76.8 76.8 76.8h532.48c40.96 0 76.8-35.84 76.8-76.8v-757.76c0-40.96-35.84-76.8-76.8-76.8zM245.76 857.6c-15.36 0-30.72-15.36-30.72-30.72v-757.76c0-15.36 15.36-30.72 30.72-30.72h532.48c15.36 0 30.72 15.36 30.72 30.72v757.76c0 15.36-15.36 30.72-30.72 30.72h-532.48zM481.28 652.8h-179.2c-30.72 0-51.2 25.6-51.2 51.2v71.68c0 30.72 25.6 51.2 51.2 51.2h179.2c30.72 0 51.2-25.6 51.2-51.2v-71.68c0-25.6-20.48-51.2-51.2-51.2zM302.080 785.92c-5.12 0-10.24-5.12-10.24-10.24v-71.68c0-5.12 5.12-10.24 10.24-10.24h179.2c5.12 0 10.24 5.12 10.24 10.24v71.68c0 5.12-5.12 10.24-10.24 10.24h-179.2zM721.92 652.8h-179.2c-30.72 0-51.2 25.6-51.2 51.2v71.68c0 30.72 25.6 51.2 51.2 51.2h179.2c30.72 0 51.2-25.6 51.2-51.2v-71.68c5.12-25.6-20.48-51.2-51.2-51.2zM542.72 785.92c-5.12 0-10.24-5.12-10.24-10.24v-71.68c0-5.12 5.12-10.24 10.24-10.24h179.2c5.12 0 10.24 5.12 10.24 10.24v71.68c0 5.12-5.12 10.24-10.24 10.24h-179.2zM194.56 550.4h634.88v-46.080h-634.88v46.080z" />
<glyph unicode="&#xe923;" glyph-name="railway" d="M742.4 192h-512c-70.554 0-128 57.446-128 128v512c0 70.554 57.446 128 128 128h512c70.554 0 128-57.446 128-128v-512c0-70.554-57.446-128-128-128zM230.4 908.8c-42.342 0-76.8-34.458-76.8-76.8v-512c0-42.342 34.458-76.8 76.8-76.8h512c42.342 0 76.8 34.458 76.8 76.8v512c0 42.342-34.458 76.8-76.8 76.8h-512zM970.086-26.931l-102.4 204.8c-6.298 12.646-21.709 17.766-34.355 11.469s-17.766-21.709-11.469-34.355l7.066-14.131h-685.158l7.066 14.131c6.298 12.646 1.178 28.006-11.469 34.355s-28.006 1.178-34.355-11.469l-102.4-204.8c-6.298-12.646-1.178-28.006 11.469-34.355 3.686-1.843 7.578-2.714 11.418-2.714 9.37 0 18.432 5.171 22.938 14.182l18.534 37.069h838.758l18.534-37.069c4.506-8.96 13.517-14.182 22.938-14.182 3.84 0 7.731 0.87 11.418 2.714 12.646 6.298 17.766 21.709 11.469 34.355zM92.621 38.4l25.6 51.2h736.358l25.6-51.2h-787.558zM281.6 294.4c-42.342 0-76.8 34.458-76.8 76.8s34.458 76.8 76.8 76.8 76.8-34.458 76.8-76.8-34.458-76.8-76.8-76.8zM281.6 396.8c-14.131 0-25.6-11.469-25.6-25.6s11.469-25.6 25.6-25.6 25.6 11.469 25.6 25.6-11.469 25.6-25.6 25.6zM691.2 294.4c-42.342 0-76.8 34.458-76.8 76.8s34.458 76.8 76.8 76.8 76.8-34.458 76.8-76.8-34.458-76.8-76.8-76.8zM691.2 396.8c-14.131 0-25.6-11.469-25.6-25.6s11.469-25.6 25.6-25.6 25.6 11.469 25.6 25.6-11.469 25.6-25.6 25.6zM640 806.4h-307.2c-14.131 0-25.6 11.469-25.6 25.6s11.469 25.6 25.6 25.6h307.2c14.131 0 25.6-11.469 25.6-25.6s-11.469-25.6-25.6-25.6zM742.4 755.2h-512c-14.131 0-25.6-11.469-25.6-25.6v-204.8c0-14.131 11.469-25.6 25.6-25.6h512c14.131 0 25.6 11.469 25.6 25.6v204.8c0 14.131-11.469 25.6-25.6 25.6zM256 704h204.8v-153.6h-204.8v153.6zM716.8 550.4h-204.8v153.6h204.8v-153.6z" />
<glyph unicode="&#xe924;" glyph-name="restaurant" d="M409.6 934.4c0 14.131-11.469 25.6-25.6 25.6s-25.6-11.469-25.6-25.6c0-66.867 12.902-122.726 23.296-167.629 10.138-43.725 18.074-78.285 6.656-92.723-9.523-11.981-36.71-18.944-80.947-20.787-0.102 8.294-0.205 16.691-0.205 25.088v204.8c0 14.131-11.469 25.6-25.6 25.6s-25.6-11.469-25.6-25.6v-204.8c0-8.448-0.051-16.794-0.205-25.088-44.083 1.894-71.219 8.909-80.742 20.89-11.52 14.49-3.533 49.101 6.554 92.877 10.342 44.8 23.194 100.608 23.194 167.27 0 14.131-11.469 25.6-25.6 25.6s-25.6-11.469-25.6-25.6c0-60.877-12.134-113.51-21.862-155.802-13.21-57.242-23.603-102.502 3.277-136.294 19.968-25.088 56.371-37.53 119.45-40.192-5.734-142.848-26.419-265.728-43.571-367.462-22.835-135.373-37.888-224.768 0.614-270.285 15.923-18.842 39.526-28.416 70.144-28.416s54.221 9.574 70.144 28.416c38.502 45.568 23.45 135.066 0.614 270.541-17.101 101.632-37.786 224.461-43.571 367.206 63.232 2.56 99.635 14.95 119.654 40.090 26.829 33.741 16.384 78.899 3.174 136.141-9.779 42.342-21.965 95.078-21.965 156.058zM312.627-2.509c-3.738-4.403-11.008-10.291-31.027-10.291s-27.29 5.837-31.027 10.24c-23.142 27.392-7.424 120.678 10.803 228.71 6.605 39.014 13.67 81.152 20.275 126.31 6.605-45.107 13.67-87.091 20.224-126.106 18.227-108.134 33.946-201.523 10.803-228.966zM813.158 234.906c-20.122 119.347-45.107 267.827-45.158 443.494v256c0 11.622-7.834 21.76-19.046 24.73s-23.040-1.946-28.774-12.032c-103.373-180.941-154.419-457.267-156.57-468.941-1.382-7.475 0.666-15.155 5.53-20.992s12.083-9.216 19.661-9.216h114.432c-8.96-79.053-20.941-150.272-31.59-213.299-22.835-135.373-37.888-224.768 0.614-270.285 15.923-18.842 39.526-28.416 70.144-28.416s54.221 9.574 70.144 28.416c38.502 45.568 23.45 135.066 0.614 270.541zM620.083 499.2c12.698 59.955 45.158 199.014 96.717 323.43v-144.23c0-63.283-3.226-123.034-8.346-179.2h-88.422zM773.427-2.509c-3.738-4.403-11.008-10.291-31.027-10.291s-27.29 5.837-31.027 10.24c-23.142 27.392-7.424 120.678 10.803 228.71 6.605 39.014 13.67 81.152 20.275 126.31 6.605-45.107 13.67-87.142 20.224-126.106 18.227-108.134 33.946-201.523 10.803-228.966z" />
<glyph unicode="&#xe925;" glyph-name="returnarrows" d="M939.725 594.125l-153.6 153.6c-9.984 9.984-26.214 9.984-36.198 0s-9.984-26.214 0-36.198l109.875-109.875h-731.802c-14.131 0-25.6-11.469-25.6-25.6s11.469-25.6 25.6-25.6h731.802l-109.875-109.875c-9.984-9.984-9.984-26.214 0-36.198 5.018-5.018 11.571-7.475 18.125-7.475s13.107 2.509 18.125 7.475l153.6 153.6c9.984 9.984 9.984 26.214 0 36.198zM896 294.4h-731.802l109.875 109.875c9.984 9.984 9.984 26.214 0 36.198s-26.214 9.984-36.198 0l-153.6-153.6c-9.984-9.984-9.984-26.214 0-36.198l153.6-153.6c5.018-5.018 11.571-7.475 18.125-7.475s13.107 2.509 18.125 7.475c9.984 9.984 9.984 26.214 0 36.198l-109.875 109.875h731.802c14.131 0 25.6 11.469 25.6 25.6s-11.469 25.6-25.6 25.6z" />
<glyph unicode="&#xe926;" glyph-name="right-circle" d="M830.362 766.362c-91.853 91.853-214.016 142.438-343.962 142.438s-252.058-50.586-343.962-142.438-142.438-214.016-142.438-343.91 50.586-252.058 142.438-343.962 214.016-142.438 343.962-142.438 252.058 50.586 343.962 142.438 142.438 214.016 142.438 343.962-50.586 252.058-142.438 343.91zM486.4-12.8c-239.974 0-435.2 195.226-435.2 435.2s195.226 435.2 435.2 435.2c239.974 0 435.2-195.226 435.2-435.2s-195.226-435.2-435.2-435.2zM409.6 140.8c-6.554 0-13.107 2.509-18.125 7.475-9.984 9.984-9.984 26.214 0 36.198l237.875 237.875-237.875 237.875c-9.984 9.984-9.984 26.214 0 36.198s26.214 9.984 36.198 0l256-256c9.984-9.984 9.984-26.214 0-36.198l-256-256c-5.018-5.018-11.571-7.475-18.125-7.475z" />
<glyph unicode="&#xe927;" glyph-name="right" d="M256-64c-6.554 0-13.107 2.509-18.125 7.475-9.984 9.984-9.984 26.214 0 36.198l442.675 442.675-442.675 442.675c-9.984 9.984-9.984 26.214 0 36.198s26.214 9.984 36.198 0l460.8-460.8c9.984-9.984 9.984-26.214 0-36.198l-460.8-460.8c-5.018-5.018-11.571-7.475-18.125-7.475z" />
<glyph unicode="&#xe928;" glyph-name="room-service" d="M936.96 140.8h-849.92c-15.36 0-25.6 10.24-25.6 25.6s10.24 25.6 25.6 25.6h849.92c15.36 0 25.6-10.24 25.6-25.6s-10.24-25.6-25.6-25.6zM911.36 258.56c0 107.52-40.96 204.8-117.76 281.6-71.68 71.68-163.84 112.64-261.12 117.76v46.080h25.6c15.36 0 25.6 10.24 25.6 25.6s-10.24 25.6-25.6 25.6h-92.16c-15.36 0-25.6-10.24-25.6-25.6s10.24-25.6 25.6-25.6h25.6v-46.080c-97.28-5.12-189.44-46.080-261.12-117.76-76.8-76.8-117.76-179.2-117.76-281.6 0-15.36 10.24-25.6 25.6-25.6h757.76c0 0 0 0 0 0 5.12 0 15.36 15.36 15.36 25.6 0 0 0 0 0 0zM158.72 284.16c10.24 184.32 163.84 332.8 353.28 332.8s343.040-148.48 353.28-332.8h-706.56zM281.6 401.92c-5.12 0-10.24 0-15.36 5.12-10.24 5.12-15.36 20.48-5.12 30.72 25.6 30.72 51.2 61.44 87.040 81.92s71.68 35.84 112.64 40.96c15.36 0 25.6-5.12 25.6-20.48s-5.12-25.6-20.48-25.6c-66.56-10.24-128-46.080-168.96-102.4 0-10.24-10.24-10.24-15.36-10.24z" />
<glyph unicode="&#xe929;" glyph-name="search" d="M966.093-21.094l-304.282 331.981c68.557 71.731 106.24 165.53 106.24 265.114 0 102.554-39.936 199.014-112.486 271.514s-168.96 112.486-271.514 112.486-199.014-39.936-271.514-112.486-112.486-168.96-112.486-271.514 39.936-199.014 112.486-271.514 168.96-112.486 271.514-112.486c88.371 0 172.134 29.645 240.026 84.224l304.282-331.93c5.069-5.53 11.93-8.294 18.893-8.294 6.195 0 12.39 2.202 17.306 6.707 10.445 9.574 11.11 25.754 1.587 36.147zM51.2 576c0 183.501 149.299 332.8 332.8 332.8s332.8-149.299 332.8-332.8-149.299-332.8-332.8-332.8-332.8 149.299-332.8 332.8z" />
<glyph unicode="&#xe92a;" glyph-name="share" d="M819.2 345.6c-70.861 0-133.427-36.198-170.24-91.085l-250.982 125.491c7.526 21.299 11.622 44.134 11.622 67.994s-4.096 46.694-11.622 67.994l250.982 125.491c36.762-54.886 99.379-91.085 170.24-91.085 112.947 0 204.8 91.853 204.8 204.8s-91.853 204.8-204.8 204.8-204.8-91.853-204.8-204.8c0-23.808 4.096-46.694 11.622-67.942l-250.982-125.491c-36.762 54.886-99.379 91.034-170.24 91.034-112.947 0-204.8-91.853-204.8-204.8s91.853-204.8 204.8-204.8c70.861 0 133.427 36.198 170.24 91.085l250.982-125.491c-7.526-21.299-11.622-44.134-11.622-67.994 0-112.947 91.853-204.8 204.8-204.8s204.8 91.853 204.8 204.8-91.853 204.8-204.8 204.8zM819.2 908.8c84.685 0 153.6-68.915 153.6-153.6s-68.915-153.6-153.6-153.6-153.6 68.915-153.6 153.6 68.915 153.6 153.6 153.6zM204.8 294.4c-84.685 0-153.6 68.915-153.6 153.6s68.915 153.6 153.6 153.6 153.6-68.915 153.6-153.6-68.915-153.6-153.6-153.6zM819.2-12.8c-84.685 0-153.6 68.915-153.6 153.6s68.915 153.6 153.6 153.6 153.6-68.915 153.6-153.6-68.915-153.6-153.6-153.6z" />
<glyph unicode="&#xe92b;" glyph-name="single-bed" d="M701.44-7.68h-378.88c-40.96 0-76.8 35.84-76.8 76.8v757.76c0 40.96 35.84 76.8 76.8 76.8h378.88c40.96 0 76.8-35.84 76.8-76.8v-757.76c0-40.96-35.84-76.8-76.8-76.8zM322.56 857.6c-15.36 0-30.72-15.36-30.72-30.72v-757.76c0-15.36 15.36-30.72 30.72-30.72h378.88c15.36 0 30.72 15.36 30.72 30.72v757.76c0 15.36-15.36 30.72-30.72 30.72h-378.88zM604.16 652.8h-179.2c-30.72 0-51.2 25.6-51.2 51.2v71.68c0 30.72 25.6 51.2 51.2 51.2h179.2c30.72 0 51.2-25.6 51.2-51.2v-71.68c0-25.6-25.6-51.2-51.2-51.2zM419.84 785.92c-5.12 0-10.24-5.12-10.24-10.24v-71.68c0-5.12 5.12-10.24 10.24-10.24h179.2c5.12 0 10.24 5.12 10.24 10.24v71.68c0 5.12-5.12 10.24-10.24 10.24h-179.2zM276.48 550.4h481.28v-46.080h-481.28v46.080z" />
<glyph unicode="&#xe92c;" glyph-name="tag" d="M384-17.152c-20.531 0-39.834 7.987-54.323 22.426l-260.403 260.403c-14.49 14.49-22.426 33.741-22.426 54.323s7.987 39.834 22.426 54.323l439.603 439.603c24.934 24.934 70.246 43.725 105.523 43.725h230.4c42.342 0 76.8-34.458 76.8-76.8v-230.4c0-35.226-18.79-80.589-43.674-105.523l-439.603-439.603c-14.49-14.49-33.741-22.426-54.323-22.426zM614.4 806.4c-21.248 0-54.272-13.67-69.274-28.723l-439.603-439.603c-4.813-4.813-7.424-11.213-7.424-18.125s2.662-13.312 7.424-18.074l260.403-260.403c4.813-4.813 11.213-7.424 18.125-7.424s13.312 2.662 18.125 7.424l439.603 439.603c15.002 15.002 28.723 48.077 28.723 69.325v230.4c0 14.131-11.469 25.6-25.6 25.6h-230.4zM742.4 601.6c-42.342 0-76.8 34.458-76.8 76.8s34.458 76.8 76.8 76.8 76.8-34.458 76.8-76.8-34.458-76.8-76.8-76.8zM742.4 704c-14.131 0-25.6-11.469-25.6-25.6s11.469-25.6 25.6-25.6 25.6 11.469 25.6 25.6-11.469 25.6-25.6 25.6z" />
<glyph unicode="&#xe92d;" glyph-name="telephone" d="M819.2-64c-90.675 0-187.136 25.702-286.72 76.39-91.802 46.746-182.477 113.664-262.246 193.536s-146.586 170.65-193.28 262.502c-50.586 99.635-76.288 196.096-76.288 286.771 0 58.778 54.784 115.558 78.285 137.216 33.843 31.181 87.091 67.584 125.798 67.584 19.251 0 41.779-12.595 71.014-39.629 21.76-20.173 46.285-47.514 70.81-79.053 14.797-19.046 88.576-116.275 88.576-162.918 0-38.246-43.264-64.87-89.037-92.979-17.715-10.854-35.994-22.118-49.203-32.717-14.131-11.315-16.64-17.306-17.050-18.637 48.589-121.139 197.12-269.67 318.208-318.208 1.075 0.358 7.066 2.714 18.586 17.050 10.598 13.21 21.862 31.539 32.717 49.203 28.16 45.773 54.733 89.037 92.979 89.037 46.643 0 143.872-73.779 162.918-88.576 31.539-24.525 58.88-49.050 79.053-70.81 27.034-29.184 39.629-51.763 39.629-71.014 0-38.707-36.403-92.109-67.533-126.106-21.709-23.654-78.49-78.694-137.267-78.694zM204.493 908.8c-13.722-0.256-50.637-17.050-90.778-54.016-38.093-35.123-61.798-73.267-61.798-99.584 0-344.525 423.117-768 767.283-768 26.266 0 64.41 23.808 99.533 62.106 37.018 40.346 53.811 77.414 54.067 91.187-1.638 9.728-28.57 47.565-102.246 104.294-63.334 48.742-114.688 74.906-127.898 75.213-0.922-0.256-6.656-2.458-18.278-17.203-10.086-12.851-20.89-30.413-31.386-47.411-28.672-46.643-55.757-90.726-95.13-90.726-6.349 0-12.595 1.229-18.586 3.635-134.4 53.76-293.325 212.685-347.085 347.085-6.451 16.128-7.475 41.421 24.269 70.195 16.896 15.309 40.243 29.645 62.874 43.571 16.998 10.445 34.611 21.248 47.411 31.386 14.746 11.622 16.947 17.357 17.203 18.278-0.358 13.21-26.47 64.563-75.213 127.898-56.73 73.677-94.566 100.557-104.294 102.246z" />
<glyph unicode="&#xe92e;" glyph-name="tick" d="M281.6 64c-6.554 0-13.107 2.509-18.125 7.475l-256 256c-9.984 9.984-9.984 26.214 0 36.198s26.214 9.984 36.198 0l237.875-237.875 698.675 698.675c9.984 9.984 26.214 9.984 36.198 0s9.984-26.214 0-36.198l-716.8-716.8c-5.018-5.018-11.571-7.475-18.125-7.475z" />
<glyph unicode="&#xe92f;" glyph-name="time" d="M788.48 514.56h-30.72c-15.36 56.32-46.080 107.52-87.040 148.48l-35.84 153.6c-10.24 35.84-40.96 61.44-76.8 61.44h-184.32c-35.84 0-71.68-25.6-76.8-61.44l-35.84-153.6c-56.32-56.32-92.16-133.12-92.16-215.040 0-87.040 35.84-163.84 92.16-215.040l35.84-153.6c10.24-35.84 40.96-61.44 76.8-61.44h184.32c35.84 0 71.68 25.6 76.8 61.44l35.84 153.6c40.96 40.96 71.68 92.16 87.040 148.48h30.72c35.84 0 66.56 30.72 66.56 66.56s-30.72 66.56-66.56 66.56zM343.040 811.52c5.12 15.36 20.48 25.6 35.84 25.6h184.32c15.36 0 30.72-10.24 35.84-25.6l20.48-102.4c-46.080 25.6-92.16 40.96-148.48 40.96s-102.4-15.36-148.48-40.96l20.48 102.4zM588.8 84.48c-5.12-15.36-20.48-25.6-35.84-25.6h-184.32c-15.36 0-30.72 10.24-35.84 25.6l-20.48 102.4c46.080-25.6 92.16-40.96 148.48-40.96s102.4 15.36 148.48 40.96l-20.48-102.4zM465.92 197.12c-138.24 0-250.88 112.64-250.88 250.88s112.64 250.88 250.88 250.88c138.24 0 250.88-112.64 250.88-250.88s-112.64-250.88-250.88-250.88zM788.48 427.52h-25.6c0 5.12 0 15.36 0 20.48 0 10.24 0 15.36 0 20.48h25.6c10.24 0 20.48-10.24 20.48-20.48s-10.24-20.48-20.48-20.48zM465.92 427.52c-5.12 0-5.12 0-10.24 0l-92.16 46.080c-10.24 5.12-15.36 20.48-10.24 30.72s20.48 15.36 30.72 10.24l81.92-40.96 128 81.92c10.24 5.12 25.6 5.12 30.72-5.12s5.12-25.6-5.12-30.72l-138.24-92.16c-5.12 0-10.24 0-15.36 0v0z" />
<glyph unicode="&#xe930;" glyph-name="travel-desk" d="M972.8 7.68h-921.6v286.72c0 46.080 40.96 87.040 87.040 87.040h747.52c46.080 0 87.040-40.96 87.040-87.040v-286.72zM97.28 53.76h829.44v240.64c0 20.48-20.48 40.96-40.96 40.96h-747.52c-20.48 0-40.96-20.48-40.96-40.96v-240.64zM353.28 335.36h-138.24c-35.84 0-71.68 30.72-71.68 71.68 0 0 0 40.96 30.72 81.92 15.36 25.6 40.96 40.96 71.68 56.32 35.84 15.36 76.8 25.6 128 25.6 10.24 0 15.36 0 25.6 0s20.48-10.24 20.48-25.6c0-10.24-10.24-20.48-25.6-20.48-5.12 0-15.36 0-20.48 0-179.2 0-184.32-107.52-184.32-117.76s10.24-20.48 25.6-20.48h138.24c10.24 0 25.6-10.24 25.6-25.6-5.12-15.36-15.36-25.6-25.6-25.6v0zM414.72 335.36h138.24c35.84 0 71.68 30.72 71.68 71.68 0 0 0 40.96-30.72 81.92-15.36 25.6-40.96 40.96-71.68 56.32-35.84 15.36-76.8 25.6-128 25.6-10.24 0-15.36 0-25.6 0s-20.48-10.24-20.48-25.6c0-10.24 10.24-20.48 25.6-20.48 5.12 0 15.36 0 20.48 0 179.2 0 184.32-107.52 184.32-117.76s-10.24-20.48-25.6-20.48h-138.24c-10.24 0-25.6-10.24-25.6-25.6s10.24-25.6 25.6-25.6v0zM373.76 611.84c-76.8 0-138.24 61.44-138.24 138.24s61.44 138.24 138.24 138.24c76.8 0 138.24-61.44 138.24-138.24s-61.44-138.24-138.24-138.24zM373.76 842.24c-51.2 0-92.16-40.96-92.16-92.16s40.96-92.16 92.16-92.16c51.2 0 92.16 40.96 92.16 92.16s-40.96 92.16-92.16 92.16zM916.48 371.2h-46.080v61.44c0 10.24-5.12 15.36-15.36 15.36h-148.48c-10.24 0-15.36-5.12-15.36-15.36v-61.44h-46.080v61.44c0 35.84 25.6 61.44 61.44 61.44h148.48c35.84 0 61.44-25.6 61.44-61.44v-61.44z" />
<glyph unicode="&#xe931;" glyph-name="tv" d="M947.2 704h-367.872l180.070 160.051c10.547 9.37 11.52 25.549 2.15 36.147s-25.549 11.52-36.147 2.15l-213.709-189.952-162.253 139.059c-10.752 9.216-26.88 7.936-36.096-2.765s-7.936-26.88 2.765-36.096l126.669-108.544h-365.978c-42.342 0-76.8-34.458-76.8-76.8v-614.4c0-42.342 34.458-76.8 76.8-76.8h870.4c42.342 0 76.8 34.458 76.8 76.8v614.4c0 42.342-34.458 76.8-76.8 76.8zM972.8 12.8c0-14.131-11.469-25.6-25.6-25.6h-870.4c-14.131 0-25.6 11.469-25.6 25.6v614.4c0 14.131 11.469 25.6 25.6 25.6h870.4c14.131 0 25.6-11.469 25.6-25.6v-614.4zM640 38.4h-460.8c-42.342 0-76.8 34.458-76.8 76.8v409.6c0 42.342 34.458 76.8 76.8 76.8h460.8c42.342 0 76.8-34.458 76.8-76.8v-409.6c0-42.342-34.458-76.8-76.8-76.8zM179.2 550.4c-14.131 0-25.6-11.469-25.6-25.6v-409.6c0-14.131 11.469-25.6 25.6-25.6h460.8c14.131 0 25.6 11.469 25.6 25.6v409.6c0 14.131-11.469 25.6-25.6 25.6h-460.8zM844.8 396.8c-42.342 0-76.8 34.458-76.8 76.8s34.458 76.8 76.8 76.8 76.8-34.458 76.8-76.8c0-42.342-34.458-76.8-76.8-76.8zM844.8 499.2c-14.131 0-25.6-11.469-25.6-25.6s11.469-25.6 25.6-25.6 25.6 11.469 25.6 25.6-11.469 25.6-25.6 25.6zM844.8 192c-42.342 0-76.8 34.458-76.8 76.8s34.458 76.8 76.8 76.8 76.8-34.458 76.8-76.8-34.458-76.8-76.8-76.8zM844.8 294.4c-14.131 0-25.6-11.469-25.6-25.6s11.469-25.6 25.6-25.6 25.6 11.469 25.6 25.6-11.469 25.6-25.6 25.6z" />
<glyph unicode="&#xe932;" glyph-name="twitter" d="M906.24 693.76c-30.72-15.36-61.44-20.48-92.16-25.6 30.72 20.48 56.32 51.2 71.68 87.040-30.72-20.48-66.56-30.72-102.4-40.96-30.72 30.72-71.68 51.2-117.76 51.2-87.040 0-158.72-71.68-158.72-158.72 0-10.24 0-25.6 5.12-35.84-133.12 5.12-250.88 71.68-332.8 168.96-15.36-25.6-20.48-51.2-20.48-81.92 0-56.32 30.72-107.52 71.68-133.12-25.6 0-51.2 10.24-71.68 20.48 0 0 0 0 0 0 0-76.8 56.32-143.36 128-158.72-15.36-5.12-25.6-5.12-40.96-5.12-10.24 0-20.48 0-30.72 5.12 20.48-66.56 81.92-112.64 148.48-112.64-56.32-40.96-122.88-66.56-199.68-66.56-15.36 0-25.6 0-40.96 0 71.68-46.080 153.6-71.68 245.76-71.68 296.96 0 460.8 245.76 460.8 460.8 0 5.12 0 15.36 0 20.48 25.6 15.36 51.2 40.96 76.8 76.8z" />
<glyph unicode="&#xe933;" glyph-name="wifi" d="M537.6 140.8c-42.342 0-76.8 34.458-76.8 76.8s34.458 76.8 76.8 76.8c42.342 0 76.8-34.458 76.8-76.8s-34.458-76.8-76.8-76.8zM537.6 243.2c-14.131 0-25.6-11.469-25.6-25.6s11.469-25.6 25.6-25.6 25.6 11.469 25.6 25.6-11.469 25.6-25.6 25.6zM361.114 296.038c-4.403 0-8.909 1.126-13.005 3.584-12.186 7.168-16.23 22.886-9.011 35.072 20.019 33.894 48.589 62.259 82.534 82.074 35.072 20.429 75.162 31.232 115.917 31.232s80.896-10.803 115.917-31.232c33.997-19.814 62.515-48.23 82.534-82.074 7.219-12.186 3.174-27.853-9.011-35.072s-27.853-3.174-35.072 9.011c-32.154 54.374-91.29 88.166-154.419 88.166s-122.266-33.792-154.419-88.166c-4.762-8.090-13.312-12.595-22.067-12.595zM824.678 406.63c-7.782 0-15.462 3.533-20.531 10.24-63.539 84.838-160.717 133.53-266.547 133.53s-203.008-48.64-266.547-133.53c-8.499-11.315-24.525-13.619-35.84-5.12s-13.619 24.525-5.12 35.84c35.021 46.746 80.947 85.504 132.813 112.077 54.426 27.853 113.203 41.984 174.694 41.984s120.32-14.131 174.694-41.984c51.866-26.522 97.792-65.28 132.813-112.077 8.499-11.315 6.195-27.341-5.12-35.84-4.608-3.43-9.984-5.12-15.309-5.12zM934.042 516.045c-7.424 0-14.746 3.226-19.814 9.37-92.877 113.51-230.144 178.586-376.627 178.586s-283.75-65.075-376.627-178.586c-8.96-10.957-25.088-12.544-36.045-3.584s-12.544 25.088-3.584 36.045c102.656 125.44 254.362 197.376 416.256 197.376s313.6-71.936 416.256-197.376c8.96-10.957 7.322-27.085-3.584-36.045-4.762-3.891-10.496-5.786-16.179-5.786z" />
<glyph unicode="&#xe934;" glyph-name="expand" d="M402.125 594.125l-314.675 314.675h194.202c14.131 0 25.6 11.469 25.6 25.6s-11.469 25.6-25.6 25.6h-256c-14.131 0-25.6-11.469-25.6-25.6v-256c0-14.131 11.469-25.6 25.6-25.6s25.6 11.469 25.6 25.6v194.202l314.675-314.675c5.018-5.018 11.571-7.475 18.125-7.475s13.107 2.509 18.125 7.475c9.984 9.984 9.984 26.214 0 36.198zM998.4 960h-256c-14.131 0-25.6-11.469-25.6-25.6s11.469-25.6 25.6-25.6h194.202l-314.675-314.675c-9.984-9.984-9.984-26.214 0-36.198 5.018-5.018 11.571-7.475 18.074-7.475s13.107 2.509 18.074 7.475l314.726 314.675v-194.202c0-14.131 11.469-25.6 25.6-25.6s25.6 11.469 25.6 25.6v256c0 14.131-11.469 25.6-25.6 25.6zM402.125 338.074c-9.984 9.984-26.214 9.984-36.198 0l-314.675-314.675v194.202c0 14.131-11.469 25.6-25.6 25.6s-25.6-11.469-25.6-25.6v-256c0-14.131 11.469-25.6 25.6-25.6h256c14.131 0 25.6 11.469 25.6 25.6s-11.469 25.6-25.6 25.6h-194.202l314.675 314.726c9.984 9.984 9.984 26.214 0 36.198zM998.4 243.2c-14.131 0-25.6-11.469-25.6-25.6v-194.202l-314.726 314.675c-9.984 9.984-26.214 9.984-36.198 0s-9.984-26.214 0-36.198l314.726-314.675h-194.202c-14.131 0-25.6-11.469-25.6-25.6s11.469-25.6 25.6-25.6h256c14.131 0 25.6 11.469 25.6 25.6v256c0 14.131-11.469 25.6-25.6 25.6z" />
<glyph unicode="&#xe935;" glyph-name="expand3" d="M896 38.4h-819.2c-42.342 0-76.8 34.458-76.8 76.8v614.4c0 42.342 34.458 76.8 76.8 76.8h819.2c42.342 0 76.8-34.458 76.8-76.8v-614.4c0-42.342-34.458-76.8-76.8-76.8zM76.8 755.2c-14.131 0-25.6-11.469-25.6-25.6v-614.4c0-14.131 11.469-25.6 25.6-25.6h819.2c14.131 0 25.6 11.469 25.6 25.6v614.4c0 14.131-11.469 25.6-25.6 25.6h-819.2zM606.925 619.725l-102.4 102.4c-9.984 9.984-26.214 9.984-36.198 0l-102.4-102.4c-9.984-9.984-9.984-26.214 0-36.198s26.214-9.984 36.198 0l58.675 58.675v-117.402c0-14.131 11.469-25.6 25.6-25.6s25.6 11.469 25.6 25.6v117.402l58.675-58.675c5.018-5.018 11.571-7.475 18.125-7.475s13.107 2.509 18.125 7.475c9.984 9.984 9.984 26.214 0 36.198zM606.925 261.325c-9.984 9.984-26.214 9.984-36.198 0l-58.675-58.675v117.402c0 14.131-11.469 25.6-25.6 25.6s-25.6-11.469-25.6-25.6v-117.402l-58.675 58.675c-9.984 9.984-26.214 9.984-36.198 0s-9.984-26.214 0-36.198l102.4-102.4c5.018-5.018 11.571-7.475 18.125-7.475s13.107 2.509 18.125 7.475l102.4 102.4c9.984 9.984 9.984 26.214 0 36.198zM888.525 440.525l-102.4 102.4c-9.984 9.984-26.214 9.984-36.198 0s-9.984-26.214 0-36.198l58.675-58.675h-117.402c-14.131 0-25.6-11.469-25.6-25.6s11.469-25.6 25.6-25.6h117.402l-58.675-58.675c-9.984-9.984-9.984-26.214 0-36.198 5.018-5.018 11.571-7.475 18.125-7.475s13.107 2.509 18.125 7.475l102.4 102.4c9.984 9.984 9.984 26.214 0 36.198zM281.6 448h-117.402l58.675 58.675c9.984 9.984 9.984 26.214 0 36.198s-26.214 9.984-36.198 0l-102.4-102.4c-9.984-9.984-9.984-26.214 0-36.198l102.4-102.4c5.018-5.018 11.571-7.475 18.125-7.475s13.107 2.509 18.125 7.475c9.984 9.984 9.984 26.214 0 36.198l-58.675 58.675h117.402c14.131 0 25.6 11.469 25.6 25.6s-11.469 25.6-25.6 25.6z" />
<glyph unicode="&#xe936;" glyph-name="checkbox-unchecked" d="M896 960h-768c-70.4 0-128-57.6-128-128v-768c0-70.4 57.6-128 128-128h768c70.4 0 128 57.6 128 128v768c0 70.4-57.6 128-128 128zM896 64h-768v768h768v-768z" />
<glyph unicode="&#xe937;" glyph-name="checkbox-checked" d="M896 960h-768c-70.4 0-128-57.6-128-128v-768c0-70.4 57.6-128 128-128h768c70.4 0 128 57.6 128 128v768c0 70.4-57.6 128-128 128zM448 165.49l-237.254 237.256 90.51 90.508 146.744-146.744 306.746 306.746 90.508-90.51-397.254-397.256z" />
<glyph unicode="&#xe938;" glyph-name="event-hosting1" d="M645.12 601.6c0 5.12 0 40.96-15.36 71.68-10.24 20.48-20.48 40.96-40.96 56.32-5.12 5.12-10.24 5.12-15.36 10.24 15.36 15.36 25.6 35.84 25.6 61.44 0 46.080-40.96 87.040-87.040 87.040s-87.040-40.96-87.040-87.040c0-25.6 10.24-46.080 25.6-61.44-5.12-5.12-10.24-5.12-15.36-10.24-15.36-10.24-30.72-30.72-40.96-51.2-15.36-40.96-15.36-76.8-15.36-76.8 0-10.24 10.24-20.48 20.48-20.48h220.16c15.36 0 25.6 10.24 25.6 20.48 0 0 0 0 0 0zM465.92 801.28c0 25.6 20.48 46.080 46.080 46.080s46.080-20.48 46.080-46.080c0-25.6-20.48-46.080-46.080-46.080s-46.080 20.48-46.080 46.080zM424.96 622.080c0 10.24 5.12 20.48 10.24 35.84 15.36 35.84 40.96 51.2 76.8 51.2 61.44 0 81.92-56.32 87.040-87.040h-174.080zM337.92 120.32c0 5.12 0 40.96-15.36 71.68-10.24 20.48-20.48 40.96-40.96 56.32-5.12 5.12-10.24 5.12-15.36 10.24 15.36 15.36 25.6 35.84 25.6 61.44 0 46.080-40.96 87.040-87.040 87.040s-87.040-40.96-87.040-87.040c0-25.6 10.24-46.080 25.6-61.44-5.12-5.12-10.24-5.12-15.36-10.24-15.36-15.36-30.72-30.72-40.96-56.32-15.36-35.84-15.36-71.68-15.36-76.8 0-10.24 10.24-20.48 20.48-20.48h220.16c15.36 0 25.6 10.24 25.6 25.6 0 0 0 0 0 0zM158.72 314.88c0 25.6 20.48 46.080 46.080 46.080s46.080-20.48 46.080-46.080c0-25.6-20.48-46.080-46.080-46.080-25.6 5.12-46.080 25.6-46.080 46.080zM117.76 140.8c0 10.24 5.12 20.48 10.24 35.84 15.36 35.84 40.96 51.2 76.8 51.2 61.44 0 81.92-56.32 87.040-87.040h-174.080zM952.32 120.32c0 5.12 0 40.96-15.36 71.68-10.24 20.48-20.48 40.96-40.96 56.32-5.12 5.12-10.24 5.12-15.36 10.24 15.36 15.36 25.6 35.84 25.6 61.44 0 46.080-40.96 87.040-87.040 87.040s-87.040-40.96-87.040-87.040c0-25.6 10.24-46.080 25.6-61.44-5.12-5.12-10.24-5.12-15.36-10.24-15.36-15.36-30.72-30.72-40.96-56.32-15.36-35.84-15.36-71.68-15.36-76.8 0-10.24 10.24-20.48 20.48-20.48h220.16c15.36 0 25.6 10.24 25.6 25.6 0 0 0 0 0 0zM773.12 314.88c0 25.6 20.48 46.080 46.080 46.080s46.080-20.48 46.080-46.080c0-25.6-20.48-46.080-46.080-46.080-25.6 5.12-46.080 25.6-46.080 46.080zM732.16 140.8c0 10.24 5.12 20.48 10.24 35.84 15.36 35.84 40.96 51.2 76.8 51.2 61.44 0 81.92-56.32 87.040-87.040h-174.080zM512 7.68c-56.32 0-112.64 15.36-163.84 40.96-10.24 5.12-15.36 20.48-10.24 30.72s20.48 15.36 30.72 10.24c46.080-25.6 92.16-35.84 143.36-35.84s97.28 10.24 143.36 35.84c10.24 5.12 25.6 0 30.72-10.24s0-25.6-10.24-30.72c-51.2-25.6-107.52-40.96-163.84-40.96zM829.44 427.52c-10.24 0-20.48 5.12-20.48 15.36-20.48 71.68-66.56 138.24-133.12 179.2-10.24 5.12-15.36 20.48-5.12 30.72 5.12 10.24 20.48 15.36 30.72 5.12 76.8-46.080 128-117.76 153.6-204.8 5.12-10.24-5.12-25.6-15.36-25.6-5.12 0-10.24 0-10.24 0v0zM194.56 427.52c0 0-5.12 0-5.12 0-10.24 5.12-20.48 15.36-15.36 25.6 25.6 81.92 76.8 158.72 153.6 204.8 5.12 5.12 20.48 5.12 25.6-5.12 10.24-10.24 5.12-25.6-5.12-30.72-66.56-40.96-112.64-102.4-133.12-179.2 0-10.24-10.24-15.36-20.48-15.36v0z" />
<glyph unicode="&#xe939;" glyph-name="event-hosting2" d="M911.36 888.32h-798.72c-10.24 0-20.48-10.24-20.48-20.48v-665.6c0-10.24 10.24-20.48 20.48-20.48h348.16l-138.24-138.24c-10.24-10.24-10.24-20.48 0-30.72 5.12-5.12 10.24-5.12 15.36-5.12s10.24 0 15.36 5.12l138.24 138.24v-122.88c0-10.24 10.24-20.48 20.48-20.48s20.48 10.24 20.48 20.48v122.88l138.24-138.24c5.12-5.12 10.24-5.12 15.36-5.12s10.24 0 15.36 5.12c10.24 10.24 10.24 20.48 0 30.72l-138.24 138.24h343.040c10.24 0 20.48 10.24 20.48 20.48v665.6c5.12 10.24-5.12 20.48-15.36 20.48v0zM138.24 847.36h752.64v-532.48h-752.64v532.48zM885.76 227.84h-747.52v46.080h752.64v-46.080zM798.72 488.96h-220.16c-10.24 0-20.48 10.24-20.48 20.48v266.24c0 10.24 10.24 20.48 20.48 20.48h220.16c10.24 0 20.48-10.24 20.48-20.48v-266.24c0-10.24-10.24-20.48-20.48-20.48zM599.040 529.92h179.2v220.16h-179.2v-220.16zM486.4 739.84h-281.6c-10.24 0-20.48 10.24-20.48 20.48s10.24 20.48 20.48 20.48h281.6c10.24 0 20.48-10.24 20.48-20.48s-5.12-20.48-20.48-20.48zM486.4 652.8h-281.6c-10.24 0-20.48 10.24-20.48 25.6s10.24 20.48 20.48 20.48h281.6c10.24 0 20.48-10.24 20.48-20.48s-5.12-25.6-20.48-25.6zM486.4 570.88h-281.6c-10.24 0-20.48 10.24-20.48 20.48s10.24 25.6 20.48 25.6h281.6c10.24 0 20.48-10.24 20.48-20.48s-5.12-25.6-20.48-25.6zM486.4 488.96h-281.6c-10.24 0-20.48 10.24-20.48 20.48s10.24 20.48 20.48 20.48h281.6c10.24 0 20.48-10.24 20.48-20.48 5.12-10.24-5.12-20.48-20.48-20.48zM793.6 401.92h-588.8c-10.24 0-20.48 10.24-20.48 20.48 0 15.36 10.24 25.6 20.48 25.6h588.8c10.24 0 20.48-10.24 20.48-20.48 0-15.36-5.12-25.6-20.48-25.6z" />
<glyph unicode="&#xe93a;" glyph-name="Landmark" d="M716.8 652.8h51.2v-51.2h-51.2v51.2zM716.8 550.4h51.2v-51.2h-51.2v51.2zM716.8 448h51.2v-51.2h-51.2v51.2zM716.8 345.6h51.2v-51.2h-51.2v51.2zM716.8 140.8h51.2v-51.2h-51.2v51.2zM716.8 243.2h51.2v-51.2h-51.2v51.2zM307.2 652.8h51.2v-51.2h-51.2v51.2zM307.2 550.4h51.2v-51.2h-51.2v51.2zM307.2 448h51.2v-51.2h-51.2v51.2zM307.2 345.6h51.2v-51.2h-51.2v51.2zM307.2 140.8h51.2v-51.2h-51.2v51.2zM307.2 243.2h51.2v-51.2h-51.2v51.2zM204.8 652.8h51.2v-51.2h-51.2v51.2zM204.8 550.4h51.2v-51.2h-51.2v51.2zM204.8 448h51.2v-51.2h-51.2v51.2zM204.8 345.6h51.2v-51.2h-51.2v51.2zM204.8 140.8h51.2v-51.2h-51.2v51.2zM204.8 243.2h51.2v-51.2h-51.2v51.2zM409.6 652.8h51.2v-51.2h-51.2v51.2zM409.6 550.4h51.2v-51.2h-51.2v51.2zM409.6 448h51.2v-51.2h-51.2v51.2zM409.6 345.6h51.2v-51.2h-51.2v51.2zM409.6 140.8h51.2v-51.2h-51.2v51.2zM409.6 243.2h51.2v-51.2h-51.2v51.2zM947.2-12.8h-25.6v691.2c0 39.066-29.030 79.309-66.099 91.699l-241.101 80.384v83.968c0 8.090-3.84 15.718-10.342 20.531s-14.899 6.298-22.63 3.994l-462.95-138.906c-37.734-11.315-67.277-51.046-67.277-90.419v-742.4h-25.6c-14.131 0-25.6-11.469-25.6-25.6s11.469-25.6 25.6-25.6h921.6c14.131 0 25.6 11.469 25.6 25.6s-11.469 25.6-25.6 25.6zM839.322 721.51c16.282-5.427 31.078-25.958 31.078-43.11v-691.2h-256v809.267l224.922-74.957zM102.4 729.6c0 16.845 14.694 36.557 30.822 41.37l429.978 129.024v-912.794h-460.8v742.4z" />
<glyph unicode="&#xe93b;" glyph-name="trilights" d="M757.504 715.315l-74.957 54.426-28.621 88.115h-92.621l-74.957 54.426-74.957-54.426h-92.621l-28.621-88.115-74.957-54.426 28.621-88.115-28.621-88.115 74.957-54.426 16.998-52.275v-470.784c0-9.421 5.222-18.125 13.517-22.579s18.432-3.942 26.266 1.28l139.418 92.928 139.418-92.928c4.301-2.867 9.216-4.301 14.182-4.301 4.147 0 8.294 1.024 12.083 3.021 8.346 4.454 13.517 13.107 13.517 22.579v470.784l16.998 52.275 74.957 54.426-28.621 88.115 28.621 88.115zM500.582 85.299c-8.602 5.734-19.814 5.734-28.416 0l-113.818-75.878v387.123h53.043l74.957-54.426 74.957 54.426h53.043v-387.123l-113.818 75.878zM697.344 558.643l-58.317-42.342-22.17-68.301h-2.458v-0.205h-69.683l-58.317-42.342-58.317 42.342h-72.038l-22.272 68.557-58.317 42.342 22.272 68.557-22.272 68.557 58.317 42.342 22.272 68.557h72.038l58.317 42.342 58.317-42.342h72.038l22.272-68.557 58.317-42.342-22.272-68.557 22.272-68.557zM537.6 755.2h-102.4c-14.131 0-25.6-11.469-25.6-25.6s11.469-25.6 25.6-25.6h76.8v-51.2h-76.8c-14.131 0-25.6-11.469-25.6-25.6s11.469-25.6 25.6-25.6h76.8v-51.2h-76.8c-14.131 0-25.6-11.469-25.6-25.6s11.469-25.6 25.6-25.6h102.4c14.131 0 25.6 11.469 25.6 25.6v204.8c0 14.131-11.469 25.6-25.6 25.6z" />
<glyph unicode="&#xe93c;" glyph-name="instagram" horiz-adv-x="878" d="M585.143 438.857q0 60.571-42.857 103.429t-103.429 42.857-103.429-42.857-42.857-103.429 42.857-103.429 103.429-42.857 103.429 42.857 42.857 103.429zM664 438.857q0-93.714-65.714-159.429t-159.429-65.714-159.429 65.714-65.714 159.429 65.714 159.429 159.429 65.714 159.429-65.714 65.714-159.429zM725.714 673.143q0-21.714-15.429-37.143t-37.143-15.429-37.143 15.429-15.429 37.143 15.429 37.143 37.143 15.429 37.143-15.429 15.429-37.143zM438.857 798.857q-4 0-43.714 0.286t-60.286 0-55.143-1.714-58.857-5.714-40.857-10.571q-28.571-11.429-50.286-33.143t-33.143-50.286q-6.286-16.571-10.571-40.857t-5.714-58.857-1.714-55.143 0-60.286 0.286-43.714-0.286-43.714 0-60.286 1.714-55.143 5.714-58.857 10.571-40.857q11.429-28.571 33.143-50.286t50.286-33.143q16.571-6.286 40.857-10.571t58.857-5.714 55.143-1.714 60.286 0 43.714 0.286 43.714-0.286 60.286 0 55.143 1.714 58.857 5.714 40.857 10.571q28.571 11.429 50.286 33.143t33.143 50.286q6.286 16.571 10.571 40.857t5.714 58.857 1.714 55.143 0 60.286-0.286 43.714 0.286 43.714 0 60.286-1.714 55.143-5.714 58.857-10.571 40.857q-11.429 28.571-33.143 50.286t-50.286 33.143q-16.571 6.286-40.857 10.571t-58.857 5.714-55.143 1.714-60.286 0-43.714-0.286zM877.714 438.857q0-130.857-2.857-181.143-5.714-118.857-70.857-184t-184-70.857q-50.286-2.857-181.143-2.857t-181.143 2.857q-118.857 5.714-184 70.857t-70.857 184q-2.857 50.286-2.857 181.143t2.857 181.143q5.714 118.857 70.857 184t184 70.857q50.286 2.857 181.143 2.857t181.143-2.857q118.857-5.714 184-70.857t70.857-184q2.857-50.286 2.857-181.143z" />
<glyph unicode="&#xe93d;" glyph-name="google-plus" horiz-adv-x="1317" d="M821.143 429.143q0-118.857-49.714-211.714t-141.714-145.143-210.857-52.286q-85.143 0-162.857 33.143t-133.714 89.143-89.143 133.714-33.143 162.857 33.143 162.857 89.143 133.714 133.714 89.143 162.857 33.143q163.429 0 280.571-109.714l-113.714-109.143q-66.857 64.571-166.857 64.571-70.286 0-130-35.429t-94.571-96.286-34.857-132.857 34.857-132.857 94.571-96.286 130-35.429q47.429 0 87.143 13.143t65.429 32.857 44.857 44.857 28 47.429 12.286 42.286h-237.714v144h395.429q6.857-36 6.857-69.714zM1316.571 498.857v-120h-119.429v-119.429h-120v119.429h-119.429v120h119.429v119.429h120v-119.429h119.429z" />
<glyph unicode="&#xf156;" glyph-name="inr, rupee" horiz-adv-x="513" d="M513.143 682.286v-58.286q0-8-5.143-13.143t-13.143-5.143h-96q-13.143-82.286-73.714-133.714t-157.714-62.857q95.429-101.714 262.286-306.286 8-9.143 2.286-19.429-4.571-10.286-16.571-10.286h-111.429q-9.143 0-14.286 6.857-174.857 209.714-284.571 326.286-5.143 5.143-5.143 12.571v72.571q0 7.429 5.429 12.857t12.857 5.429h64q75.429 0 121.429 24.571t58.571 71.429h-244q-8 0-13.143 5.143t-5.143 13.143v58.286q0 8 5.143 13.143t13.143 5.143h236q-32.571 64.571-153.143 64.571h-82.857q-7.429 0-12.857 5.429t-5.429 12.857v76q0 8 5.143 13.143t13.143 5.143h475.429q8 0 13.143-5.143t5.143-13.143v-58.286q0-8-5.143-13.143t-13.143-5.143h-133.143q26.857-34.857 36.571-82.286h97.714q8 0 13.143-5.143t5.143-13.143z" />
</font>
</defs>
</svg>
